<svg xmlns="http://www.w3.org/2000/svg" version="1.1" xmlns:xlink="http://www.w3.org/1999/xlink" xmlns:svgjs="http://svgjs.dev/svgjs" viewBox="0 0 800 800"><defs><linearGradient x1="50%" y1="0%" x2="50%" y2="100%" id="ccchaos-grad"><stop stop-color="hsl(206, 75%, 49%)" stop-opacity="1" offset="0%"></stop><stop stop-color="hsl(331, 90%, 56%)" stop-opacity="1" offset="100%"></stop></linearGradient></defs><g stroke-width="1.5" stroke="url(#ccchaos-grad)" fill="none" stroke-linecap="round"><path d="M411.98 -47.45Q422.48 -42.67 432.75 -36.75 442.79 -29.43 452.63 -20.71 462.29 -10.79 471.8 -0.1 481.19 10.76 490.48 21.18 499.72 30.56 508.95 38.42 518.21 44.53 527.53 48.95 536.96 51.98 546.54 54.19 556.31 56.3 566.3 59.09 576.57 63.25 587.14 69.29 598.03 77.42 609.29 87.53 620.93 99.19 632.97 111.69 645.42 124.16 658.28 135.7 671.57 145.54 685.27 153.13 699.38 158.28 713.87 161.19 728.72 162.42 743.91 162.81 759.39 163.4 775.13 165.19 783.27 178.54 791.37 191.89 799.02 205.25 805.83 218.6 811.44 231.95 815.58 245.31 818.04 258.66 818.68 272.01 817.47 285.36 814.48 298.72 809.86 312.07 803.85 325.42 796.74 338.78 788.91 352.13 780.75 365.48 772.68 378.84 765.11 392.19 758.43 405.54 752.97 418.89 749.02 432.25 746.77 445.6 746.34 458.95 747.76 472.31 750.94 485.66 755.74 499.01 761.89 512.37 769.1 525.72 776.99 539.07 785.16 552.43 793.19 565.78 800.68 579.13 807.24 592.49 797.7 609.32 787.74 629.22 777.34 650.18 766.48 669.99 755.18 686.6 743.43 698.41 731.25 704.59 718.65 705.15 705.65 701.02 692.29 693.87 678.58 685.87 664.58 679.38 650.31 676.51 635.81 678.88 621.14 687.27 606.33 701.54 591.43 720.6 576.49 742.6 561.54 765.2 546.62 785.92 531.79 802.56 517.08 813.53 502.52 818.1 488.14 816.56 473.97 810.15 460.04 800.92 446.35 791.36 432.94 784.09 419.8 781.36 406.94 784.75 394.37 794.9 382.07 811.37 371.43 819.15 360.95 829.17 350.59 838.77 340.34 845.39 330.14 846.95 319.99 842.21 309.83 830.91 299.65 813.81 289.41 792.6 279.09 769.54 268.67 747.18 258.13 727.93 247.44 713.65 236.6 705.44 225.6 703.41 214.42 706.72 203.07 713.71 191.54 722.15 179.85 729.65 167.99 733.96 155.98 733.4 143.83 727.04 131.56 714.88 119.18 697.83 106.71 677.53 94.17 656.13 81.59 635.9 68.98 618.89 56.36 606.63 43.77 599.89 31.21 598.54 18.71 601.65 18.38 588.15 18.01 574.65 17.62 561.15 17.21 547.65 16.82 534.16 16.47 520.66 16.16 507.16 15.93 493.66 15.77 480.16 15.7 466.66 15.72 453.17 15.83 439.67 16.03 426.17 16.3 412.67 16.63 399.17 17 385.67 17.4 372.18 17.8 358.68 18.19 345.18 18.54 331.68 18.84 318.18 19.06 304.68 19.21 291.19 19.27 277.69 19.24 264.19 19.12 250.69 18.91 237.19 18.64 223.7 18.3 210.2 17.92 196.7 17.52 183.2 17.12 169.7 28.71 158.21 40.2 149.04 51.58 142.46 62.89 138.35 74.13 136.18 85.33 135.15 96.5 134.33 107.66 132.74 118.83 129.61 130.05 124.4 141.32 116.92 152.68 107.35 164.14 96.19 175.73 84.16 187.46 72.08 199.35 60.77 211.41 50.88 223.65 42.8 236.09 36.64 248.71 32.21 261.54 29.04 274.55 26.49 287.75 23.86 301.13 20.49 314.66 15.87 328.34 9.7 342.13 1.97 356.02 -7.12 369.98 -17.15 383.99 -27.6 404.99 -42.65 411.98 -47.45" stroke-dasharray="12 75" transform="rotate(0, 400, 400)" opacity="0.05"></path><path d="M409.78 -39.03Q419.86 -34.44 429.73 -28.69 439.41 -21.56 448.92 -13.03 458.3 -3.28 467.56 7.26 476.74 18.07 485.87 28.51 494.98 37.98 504.13 46.02 513.33 52.35 522.63 56.96 532.07 60.11 541.69 62.3 551.52 64.18 561.6 66.52 571.96 70.02 582.63 75.24 593.63 82.48 604.99 91.75 616.72 102.76 628.84 114.89 641.35 127.38 654.26 139.33 667.56 149.94 681.24 158.57 695.29 164.84 709.69 168.76 724.42 170.69 739.44 171.31 754.72 171.51 770.22 172.31 778.16 185.49 785.94 198.67 793.19 211.86 799.55 225.04 804.7 238.22 808.4 251.4 810.46 264.59 810.78 277.77 809.35 290.95 806.23 304.14 801.59 317.32 795.64 330.5 788.68 343.68 781.05 356.87 773.12 370.05 765.28 383.23 757.92 396.41 751.4 409.6 746.03 422.78 742.08 435.96 739.75 449.14 739.14 462.33 740.29 475.51 743.14 488.69 747.55 501.87 753.31 515.06 760.13 528.24 767.67 541.42 775.58 554.6 783.46 567.79 790.92 580.97 797.6 594.15 788.45 612.61 778.91 632.86 768.96 652.9 758.59 670.69 747.8 684.53 736.58 693.28 724.94 696.56 712.9 694.82 700.47 689.29 687.67 681.76 674.53 674.39 661.08 669.32 647.35 668.39 633.37 672.83 619.2 683.06 604.86 698.64 590.39 718.3 575.85 740.16 561.26 761.93 546.68 781.35 532.13 796.45 517.66 805.93 503.3 809.28 489.08 806.94 475.04 800.23 461.19 791.12 447.56 782 434.16 775.29 421.02 773.04 408.13 776.7 395.51 786.81 383.15 802.94 372.95 810.42 362.87 820.08 352.88 829.45 342.95 836.11 333.06 838.07 323.17 834.1 313.25 823.85 303.28 807.92 293.23 787.76 283.08 765.44 272.81 743.3 262.4 723.66 251.84 708.4 241.12 698.75 230.24 695.05 219.18 696.77 207.95 702.56 196.55 710.49 184.98 718.32 173.26 723.86 161.4 725.32 149.4 721.5 137.29 712.06 125.09 697.46 112.81 678.96 100.46 658.38 88.09 637.8 75.69 619.31 63.3 604.61 50.93 594.86 38.6 590.41 26.33 590.84 25.94 577.71 25.5 564.58 25.03 551.45 24.56 538.32 24.11 525.19 23.71 512.06 23.37 498.93 23.11 485.79 22.94 472.66 22.87 459.53 22.91 446.4 23.05 433.27 23.28 420.14 23.6 407.01 23.98 393.88 24.42 380.75 24.88 367.62 25.35 354.49 25.81 341.36 26.22 328.22 26.57 315.09 26.85 301.96 27.03 288.83 27.11 275.7 27.1 262.57 26.97 249.44 26.75 236.31 26.45 223.18 26.07 210.04 25.64 196.91 25.18 183.78 24.71 170.65 36.07 160.67 47.33 153.17 58.48 148.2 69.56 145.39 80.56 144.1 91.52 143.45 102.43 142.51 113.34 140.42 124.24 136.52 135.18 130.46 146.16 122.19 157.21 112.03 168.36 100.55 179.61 88.51 191 76.71 202.53 65.9 214.22 56.64 226.08 49.24 238.13 43.71 250.37 39.79 262.8 36.99 275.42 34.67 288.24 32.13 301.23 28.76 314.4 24.1 327.72 17.88 341.18 10.11 354.76 1.02 368.44 -8.97 382.19 -19.34 402.88 -34.28 409.78 -39.03" stroke-dasharray="75 34" transform="rotate(7.2, 400, 400)" opacity="0.07"></path><path d="M407.38 -30.61Q417.07 -26.19 426.59 -20.63 435.95 -13.7 445.18 -5.36 454.31 4.19 463.37 14.6 472.38 25.32 481.39 35.76 490.41 45.33 499.5 53.54 508.68 60.1 517.99 64.94 527.46 68.25 537.13 70.46 547.04 72.18 557.2 74.14 567.65 77.03 578.41 81.45 589.51 87.8 600.95 96.18 612.76 106.41 624.94 118.04 637.49 130.35 650.41 142.55 663.69 153.79 677.33 163.35 691.3 170.76 705.59 175.81 720.16 178.67 734.99 179.82 750.04 180.02 765.27 180.19 772.97 193.22 780.42 206.25 787.25 219.28 793.16 232.31 797.86 245.34 801.13 258.37 802.81 271.4 802.83 284.43 801.19 297.46 797.97 310.49 793.31 323.52 787.43 336.55 780.61 349.57 773.18 362.6 765.48 375.63 757.88 388.66 750.72 401.69 744.36 414.72 739.09 427.75 735.15 440.78 732.74 453.81 731.96 466.84 732.85 479.87 735.38 492.9 739.42 505.93 744.78 518.96 751.2 532 758.4 545.03 766.02 558.06 773.72 571.09 781.12 584.12 787.88 597.15 779.09 616.44 769.95 636.28 760.43 654.73 750.52 670.05 740.21 680.92 729.5 686.67 718.39 687.33 706.89 683.71 695.02 677.24 682.78 669.79 670.19 663.41 657.3 660 644.11 661.09 630.67 667.53 617 679.43 603.15 696.11 589.14 716.15 575.03 737.65 560.84 758.46 546.61 776.5 532.39 790.06 518.2 798.08 504.08 800.29 490.07 797.24 476.19 790.28 462.47 781.35 448.93 772.68 435.6 766.52 422.48 764.75 409.6 768.67 396.96 778.74 384.57 794.52 374.76 801.71 365.04 811.03 355.38 820.16 345.75 826.83 336.12 829.16 326.46 825.91 316.75 816.67 306.96 801.88 297.08 782.81 287.07 761.28 276.94 739.48 266.65 719.6 256.21 703.51 245.6 692.54 234.83 687.23 223.88 687.32 212.76 691.77 201.48 698.93 190.05 706.76 178.46 713.19 166.75 716.35 154.91 714.88 142.97 708.09 130.94 696.1 118.85 679.74 106.7 660.48 94.53 640.17 82.35 620.81 70.18 604.21 58.04 591.76 45.94 584.23 33.91 581.7 33.44 568.9 32.93 556.11 32.39 543.32 31.86 530.52 31.37 517.73 30.92 504.94 30.55 492.15 30.27 479.36 30.09 466.56 30.03 453.77 30.09 440.98 30.25 428.19 30.53 415.39 30.89 402.6 31.33 389.81 31.83 377.02 32.36 364.22 32.89 351.43 33.4 338.64 33.88 325.85 34.28 313.05 34.61 300.26 34.83 287.47 34.94 274.68 34.94 261.89 34.83 249.09 34.6 236.3 34.27 223.51 33.86 210.72 33.39 197.93 32.87 185.13 32.34 172.34 43.47 164.03 54.5 158.22 65.43 154.73 76.27 153.02 87.04 152.34 97.75 151.79 108.43 150.52 119.07 147.76 129.72 143.01 140.38 136.08 151.07 127.07 161.82 116.41 172.65 104.73 183.58 92.8 194.62 81.37 205.8 71.13 217.12 62.54 228.61 55.82 240.27 50.91 252.12 47.48 264.15 45.02 276.37 42.88 288.78 40.42 301.38 37.03 314.16 32.31 327.11 26.03 340.21 18.23 353.46 9.15 366.82 -0.8 380.27 -11.1 400.59 -25.9 407.38 -30.61" stroke-dasharray="44 7" transform="rotate(14.4, 400, 400)" opacity="0.09"></path><path d="M404.83 -22.19Q414.17 -17.95 423.38 -12.57 432.47 -5.83 441.47 2.3 450.39 11.67 459.29 21.92 468.17 32.54 477.08 42.97 486.05 52.62 495.11 61 504.29 67.78 513.62 72.86 523.14 76.37 532.88 78.66 542.86 80.29 553.1 81.93 563.64 84.28 574.49 87.96 585.67 93.41 597.18 100.86 609.05 110.24 621.26 121.21 633.82 133.19 646.73 145.42 659.97 157.11 673.54 167.49 687.4 175.97 701.54 182.2 715.94 186.16 730.55 188.12 745.35 188.67 760.29 188.62 767.72 201.51 774.81 214.4 781.22 227.28 786.68 240.17 790.93 253.06 793.78 265.94 795.1 278.83 794.84 291.72 793.01 304.6 789.68 317.49 785.02 330.38 779.22 343.26 772.55 356.15 765.32 369.04 757.84 381.93 750.47 394.81 743.52 407.7 737.32 420.59 732.14 433.47 728.22 446.36 725.74 459.25 724.8 472.13 725.46 485.02 727.67 497.91 731.35 510.79 736.31 523.68 742.35 536.57 749.19 549.45 756.51 562.34 764 575.23 771.3 588.11 778.09 601 769.64 620.33 760.87 639.01 751.75 655.33 742.28 667.87 732.44 675.73 722.22 678.65 711.62 677.05 700.65 672.01 689.31 665.09 677.62 658.15 665.59 653.06 653.24 651.49 640.6 654.61 627.69 662.95 614.54 676.34 601.19 693.86 587.67 714.05 574 735.01 560.24 754.72 546.4 771.33 532.53 783.36 518.66 790 504.83 791.14 491.06 787.46 477.39 780.33 463.84 771.61 450.44 763.41 437.2 757.79 424.16 756.49 411.32 760.65 398.69 770.66 386.29 786.1 376.84 793 367.45 801.98 358.08 810.86 348.7 817.53 339.3 820.19 329.85 817.62 320.32 809.35 310.69 795.7 300.94 777.72 291.07 757.05 281.05 735.69 270.87 715.71 260.54 698.95 250.03 686.78 239.36 679.93 228.52 678.38 217.52 681.38 206.36 687.55 195.05 695.09 183.6 702.05 172.03 706.58 160.35 707.19 148.58 702.94 136.74 693.6 124.83 679.64 112.89 662.14 100.93 642.69 88.96 623.09 77.02 605.17 65.1 590.47 53.24 580.08 41.43 574.48 40.89 562 40.31 549.51 39.72 537.03 39.14 524.54 38.59 512.06 38.11 499.57 37.72 487.09 37.42 474.6 37.25 462.12 37.2 449.63 37.27 437.15 37.47 424.66 37.78 412.18 38.19 399.69 38.68 387.21 39.24 374.72 39.82 362.24 40.42 349.75 40.99 337.27 41.52 324.78 41.99 312.3 42.36 299.81 42.62 287.32 42.77 274.84 42.79 262.35 42.68 249.87 42.46 237.38 42.12 224.9 41.68 212.41 41.17 199.93 40.61 187.44 40.02 174.96 50.92 168.39 61.72 164.19 72.42 161.99 83.04 161.11 93.58 160.76 104.05 160.07 114.48 158.25 124.88 154.68 135.26 149.04 145.65 141.26 156.06 131.59 166.52 120.54 177.04 108.78 187.65 97.06 198.35 86.1 209.18 76.49 220.14 68.6 231.25 62.57 242.53 58.25 253.98 55.28 265.61 53.12 277.42 51.15 289.43 48.72 301.62 45.3 314 40.5 326.55 34.16 339.27 26.33 352.15 17.25 365.16 7.35 378.29 -2.86 398.18 -17.53 404.83 -22.19" stroke-dasharray="16 15" transform="rotate(21.599999999999998, 400, 400)" opacity="0.11"></path><path d="M402.18 -13.77Q411.22 -9.7 420.16 -4.51 429.02 2.02 437.82 9.95 446.59 19.12 455.36 29.2 464.15 39.72 473 50.11 481.93 59.83 490.99 68.37 500.18 75.38 509.56 80.72 519.13 84.45 528.94 86.87 538.99 88.47 549.32 89.88 559.94 91.75 570.86 94.74 582.1 99.33 593.67 105.84 605.56 114.29 617.79 124.49 630.34 135.95 643.2 148.03 656.38 159.97 669.84 171 683.57 180.45 697.54 187.85 711.73 193.01 726.1 196 740.62 197.24 755.26 197.36 762.39 210.1 769.1 222.85 775.09 235.59 780.09 248.34 783.91 261.08 786.36 273.83 787.34 286.57 786.81 299.32 784.8 312.06 781.39 324.81 776.73 337.55 771.01 350.3 764.5 363.04 757.46 375.79 750.21 388.53 743.06 401.28 736.31 414.02 730.27 426.77 725.19 439.51 721.3 452.26 718.75 465 717.67 477.75 718.09 490.49 720.01 503.23 723.33 515.98 727.92 528.72 733.57 541.47 740.04 554.21 747.05 566.96 754.3 579.7 761.47 592.45 768.25 605.19 760.11 623.78 751.69 640.69 742.96 654.46 733.9 664.05 724.49 668.98 714.74 669.36 704.63 665.93 694.17 659.96 683.35 653.06 672.19 647.01 660.7 643.49 648.9 643.85 636.8 648.97 624.43 659.06 611.81 673.71 598.97 691.85 585.94 711.95 572.75 732.19 559.43 750.7 546.01 765.84 532.53 776.37 519.02 781.68 505.5 781.84 492.02 777.62 478.59 770.38 465.25 761.91 452.03 754.19 438.94 749.11 426 748.25 413.24 752.63 400.67 762.58 388.29 777.68 379.16 784.31 370.05 792.94 360.93 801.58 351.78 808.22 342.57 811.18 333.29 809.25 323.91 801.92 314.42 789.37 304.8 772.49 295.03 752.74 285.12 731.93 275.04 711.98 264.8 694.69 254.39 681.47 243.82 673.18 233.09 670.01 222.19 671.47 211.15 676.46 199.97 683.43 188.67 690.59 177.25 696.14 165.73 698.52 154.13 696.61 142.47 689.9 130.76 678.48 119.02 663.1 107.27 645.01 95.52 625.8 83.8 607.19 72.11 590.8 60.48 577.92 48.91 569.37 48.3 557.16 47.66 544.95 47.01 532.74 46.37 520.52 45.79 508.31 45.28 496.1 44.87 483.89 44.57 471.68 44.4 459.47 44.36 447.26 44.46 435.05 44.69 422.84 45.04 410.63 45.49 398.42 46.04 386.21 46.65 373.99 47.29 361.78 47.94 349.57 48.57 337.36 49.16 325.15 49.68 312.94 50.1 300.73 50.4 288.52 50.58 276.31 50.63 264.1 50.54 251.88 50.32 239.67 49.98 227.46 49.53 215.25 48.99 203.04 48.39 190.83 47.74 178.62 58.42 173.76 68.99 171.02 79.47 169.86 89.86 169.53 100.17 169.22 110.41 168.13 120.6 165.59 130.75 161.13 140.88 154.57 151.01 145.99 161.14 135.76 171.31 124.44 181.53 112.73 191.82 101.34 202.2 90.93 212.68 81.99 223.28 74.83 234.02 69.47 244.92 65.73 255.97 63.18 267.2 61.29 278.6 59.44 290.19 57.02 301.97 53.54 313.93 48.67 326.07 42.26 338.39 34.4 350.87 25.33 363.51 15.49 376.29 5.35 395.68 -9.16 402.18 -13.77" stroke-dasharray="76 33" transform="rotate(28.8, 400, 400)" opacity="0.13"></path><path d="M399.49 -5.36Q408.28 -1.46 416.99 3.54 425.66 9.88 434.3 17.6 442.94 26.56 451.62 36.46 460.35 46.85 469.16 57.2 478.09 66.96 487.15 75.65 496.38 82.89 505.81 88.5 515.44 92.48 525.31 95.08 535.44 96.72 545.84 97.96 556.52 99.45 567.5 101.81 578.79 105.58 590.39 111.14 602.29 118.63 614.5 127.95 627.01 138.75 639.81 150.48 652.89 162.46 666.22 173.93 679.79 184.21 693.56 192.71 707.52 199.1 721.63 203.28 735.86 205.47 750.17 206.12 756.98 218.72 763.29 231.32 768.85 243.91 773.41 256.51 776.79 269.1 778.86 281.7 779.52 294.29 778.75 306.89 776.57 319.49 773.09 332.08 768.44 344.68 762.81 357.27 756.45 369.87 749.61 382.46 742.58 395.06 735.65 407.66 729.11 420.25 723.23 432.85 718.25 445.44 714.38 458.04 711.78 470.64 710.56 483.23 710.77 495.83 712.4 508.42 715.38 521.02 719.6 533.62 724.86 546.21 730.96 558.81 737.65 571.41 744.64 584 751.64 596.6 758.37 609.19 750.53 626.34 742.43 640.96 734.06 651.92 725.38 658.55 716.39 660.76 707.08 658.98 697.44 654.2 687.46 647.79 677.15 641.36 666.51 636.53 655.55 634.75 644.29 637.1 632.72 644.13 620.89 655.8 608.8 671.47 596.48 689.98 583.95 709.78 571.25 729.14 558.39 746.37 545.42 760.02 532.35 769.09 519.22 773.15 506.06 772.42 492.89 767.73 479.75 760.44 466.67 752.25 453.66 745.02 440.75 740.47 427.96 740.04 415.32 744.63 402.84 754.5 390.53 769.26 381.67 775.62 372.8 783.92 363.9 792.3 354.94 798.9 345.9 802.12 336.76 800.79 327.51 794.35 318.14 782.88 308.62 767.12 298.95 748.33 289.13 728.14 279.14 708.36 268.99 690.69 258.67 676.56 248.2 666.94 237.57 662.2 226.79 662.08 215.87 665.75 204.82 671.9 193.65 678.93 182.39 685.14 171.04 688.96 159.61 689.14 148.14 684.93 136.62 676.12 125.09 663.12 113.55 646.83 102.03 628.58 90.53 609.93 79.07 592.46 67.67 577.59 56.34 566.37 55.66 554.4 54.96 542.43 54.26 530.47 53.58 518.5 52.97 506.53 52.44 494.56 52.01 482.59 51.71 470.62 51.55 458.66 51.53 446.69 51.65 434.72 51.91 422.75 52.3 410.78 52.8 398.82 53.4 386.85 54.05 374.88 54.75 362.91 55.46 350.94 56.15 338.97 56.79 327.01 57.35 315.04 57.82 303.07 58.17 291.1 58.39 279.13 58.47 267.17 58.4 255.2 58.2 243.23 57.85 231.26 57.4 219.29 56.84 207.33 61.08 187.74 76.32 178.61 86.57 178.19 96.74 178.1 106.82 177.56 116.84 175.86 126.79 172.46 136.7 167.05 146.58 159.59 156.44 150.3 166.31 139.62 176.2 128.17 186.12 116.63 196.1 105.67 206.16 95.88 216.3 87.68 226.55 81.24 236.93 76.55 247.45 73.34 258.11 71.18 268.94 69.52 279.93 67.75 291.1 65.32 302.46 61.77 313.99 56.81 325.71 50.33 337.61 42.44 349.68 33.39 361.92 23.6 374.31 13.56 393.16 -0.8 399.49 -5.36" stroke-dasharray="20 24" transform="rotate(36, 400, 400)" opacity="0.15"></path><path d="M396.81 3.05Q405.38 6.78 413.91 11.61 422.42 17.75 430.94 25.25 439.5 34 448.11 43.7 456.8 53.95 465.6 64.23 474.54 74.03 483.63 82.85 492.9 90.31 502.38 96.19 512.07 100.45 522.01 103.27 532.2 105 542.65 106.15 553.39 107.33 564.41 109.15 575.72 112.16 587.32 116.8 599.21 123.3 611.39 131.66 623.83 141.66 636.54 152.87 649.48 164.67 662.66 176.37 676.04 187.27 689.59 196.75 703.3 204.33 717.12 209.78 731.04 213.13 745 214.64 751.47 227.07 757.38 239.51 762.5 251.94 766.63 264.37 769.6 276.81 771.29 289.24 771.64 301.67 770.64 314.11 768.32 326.54 764.77 338.97 760.14 351.4 754.61 363.84 748.4 376.27 741.76 388.7 734.95 401.14 728.24 413.57 721.9 426 716.17 438.43 711.3 450.87 707.46 463.3 704.82 475.73 703.47 488.17 703.48 500.6 704.84 513.03 707.5 525.46 711.34 537.9 716.23 550.33 721.96 562.76 728.31 575.19 735.02 587.63 741.83 600.06 748.47 612.49 740.9 627.62 733.1 639.58 716.61 649.43 699.26 647.75 690.06 642.12 680.55 635.75 670.72 630.17 660.58 626.84 650.14 626.94 639.39 631.26 628.36 640.07 617.06 653.1 605.5 669.55 593.7 688.18 581.68 707.48 569.47 725.83 557.1 741.7 544.58 753.86 531.95 761.51 519.23 764.4 506.45 762.87 493.64 757.8 480.83 750.52 468.03 742.65 455.28 735.91 442.59 731.88 430 731.86 417.52 736.63 405.16 746.43 392.95 760.84 384.33 766.93 375.67 774.9 366.95 783.03 358.14 789.58 349.24 793.03 340.23 792.25 331.08 786.66 321.8 776.25 312.38 761.6 302.79 743.8 293.05 724.33 283.14 704.83 273.08 686.93 262.85 672.06 252.47 661.23 241.95 654.98 231.28 653.27 220.49 655.51 209.57 660.63 198.56 667.22 187.45 673.74 176.27 678.64 165.02 680.61 153.74 678.7 142.42 672.47 131.1 661.98 119.78 647.84 108.47 631.06 97.21 612.99 85.98 595.1 74.82 578.83 63.72 565.39 62.98 553.64 62.22 541.89 61.47 530.13 60.76 518.38 60.12 506.63 59.58 494.87 59.15 483.12 58.85 471.36 58.7 459.61 58.7 447.86 58.85 436.1 59.15 424.35 59.57 412.6 60.12 400.84 60.76 389.09 61.46 377.33 62.21 365.58 62.97 353.83 63.71 342.07 64.4 330.32 65.02 318.56 65.54 306.81 65.93 295.06 66.19 283.3 66.3 271.55 66.26 259.79 66.07 248.04 65.74 236.29 65.28 224.53 64.71 212.78 68.81 194.2 83.69 186.8 93.73 186.8 103.67 186.65 113.53 185.63 123.32 183.13 133.04 178.78 142.72 172.4 152.35 164.11 161.96 154.21 171.57 143.22 181.18 131.77 190.82 120.53 200.5 110.11 210.24 101 220.05 93.55 229.96 87.85 239.98 83.8 250.13 81.09 260.4 79.28 270.83 77.8 281.42 76.09 292.17 73.62 303.1 69.98 314.21 64.93 325.5 58.38 336.97 50.45 348.61 41.43 360.43 31.7 372.4 21.76 390.67 7.56 396.81 3.05" stroke-dasharray="33 63" transform="rotate(43.199999999999996, 400, 400)" opacity="0.16"></path><path d="M394.19 11.47Q402.58 15.04 410.97 19.69 419.36 25.62 427.79 32.9 436.28 41.42 444.86 50.92 453.54 61.01 462.34 71.21 471.3 81.02 480.43 89.96 489.75 97.63 499.27 103.78 509.03 108.34 519.02 111.41 529.26 113.3 539.76 114.44 550.53 115.39 561.57 116.75 572.88 119.08 584.47 122.85 596.31 128.35 608.42 135.7 620.77 144.8 633.35 155.3 646.15 166.72 659.14 178.42 672.3 189.73 685.61 200 699.04 208.67 712.56 215.4 726.14 220.02 739.75 222.64 745.85 234.89 751.35 247.14 756.04 259.39 759.74 271.64 762.31 283.89 763.65 296.14 763.71 308.38 762.5 320.63 760.04 332.88 756.45 345.13 751.85 357.38 746.42 369.63 740.37 381.88 733.92 394.13 727.33 406.38 720.83 418.63 714.69 430.88 709.12 443.13 704.35 455.38 700.55 467.63 697.87 479.87 696.41 492.12 696.23 504.37 697.33 516.62 699.67 528.87 703.16 541.12 707.67 553.37 713.03 565.62 719.03 577.87 725.45 590.12 732.05 602.37 738.56 614.62 731.24 627.28 723.72 636.4 707.88 641.08 691.28 635.91 682.5 629.93 673.44 624.06 664.07 619.68 654.42 618.04 644.47 620.08 634.23 626.3 623.72 636.72 612.94 650.88 601.9 667.86 590.62 686.38 579.12 705 567.42 722.21 555.53 736.68 543.49 747.36 531.32 753.65 519.03 755.46 506.66 753.21 494.23 747.83 481.77 740.62 469.3 733.09 456.84 726.85 444.42 723.33 432.06 723.7 419.77 728.65 407.59 738.35 395.52 752.43 387.09 758.25 378.6 765.9 370.03 773.77 361.35 780.24 352.56 783.89 343.65 783.63 334.6 778.85 325.4 769.45 316.04 755.9 306.54 739.14 296.87 720.45 287.04 701.35 277.06 683.37 266.92 667.9 256.64 656.01 246.22 648.35 235.67 645.07 225 645.8 214.23 649.71 203.36 655.6 192.42 662.09 181.41 667.7 170.35 671.11 159.26 671.26 148.15 667.47 137.04 659.55 125.94 647.78 114.86 632.89 103.82 615.97 92.83 598.31 81.9 581.3 71.05 566.2 70.25 554.64 69.44 543.08 68.65 531.51 67.92 519.95 67.26 508.39 66.7 496.82 66.28 485.26 65.99 473.7 65.86 462.13 65.88 450.57 66.06 439 66.39 427.44 66.85 415.88 67.44 404.31 68.12 392.75 68.87 381.19 69.67 369.62 70.48 358.06 71.27 346.5 72.01 334.93 72.67 323.37 73.24 311.81 73.68 300.24 73.98 288.68 74.13 277.12 74.12 265.55 73.96 253.99 73.64 242.43 73.19 230.86 72.61 219.3 76.57 201.56 91.11 195.4 100.93 195.51 110.66 195.01 120.3 193.27 129.87 189.85 139.36 184.49 148.81 177.19 158.2 168.14 167.57 157.77 176.92 146.62 186.26 135.31 195.62 124.49 205.01 114.68 214.44 106.32 223.94 99.64 233.52 94.66 243.19 91.22 252.97 88.98 262.87 87.46 272.9 86.13 283.09 84.44 293.43 81.91 303.93 78.17 314.61 73.01 325.46 66.39 336.48 58.44 347.69 49.44 359.07 39.79 370.62 29.95 388.26 15.92 394.19 11.47" stroke-dasharray="5 59" transform="rotate(50.400000000000006, 400, 400)" opacity="0.18"></path><path d="M391.69 19.89Q399.94 23.3 408.21 27.76 416.52 33.49 424.89 40.55 433.34 48.83 441.9 58.12 450.58 68.03 459.4 78.14 468.39 87.94 477.56 96.97 486.92 104.84 496.5 111.27 506.3 116.13 516.33 119.49 526.61 121.58 537.14 122.78 547.93 123.6 558.96 124.59 570.25 126.32 581.79 129.27 593.57 133.81 605.58 140.13 617.81 148.22 630.24 157.89 642.86 168.72 655.64 180.19 668.56 191.67 681.6 202.51 694.74 212.12 707.94 220.04 721.17 225.98 734.4 229.88 740.13 241.92 745.21 253.96 749.47 266 752.75 278.04 754.94 290.08 755.94 302.13 755.73 314.17 754.32 326.21 751.75 338.25 748.12 350.29 743.56 362.33 738.24 374.37 732.34 386.41 726.09 398.45 719.71 410.49 713.42 422.53 707.47 434.57 702.06 446.61 697.4 458.66 693.64 470.7 690.93 482.74 689.37 494.78 689.01 506.82 689.86 518.86 691.9 530.9 695.05 542.94 699.19 554.98 704.18 567.02 709.83 579.07 715.95 591.11 722.3 603.15 728.66 615.19 714.21 629.47 699.19 632.85 691.31 629.15 683.18 623.76 674.79 617.92 666.14 612.93 657.22 610.04 648.03 610.23 638.56 614.2 628.82 622.2 618.8 634.03 608.53 649.07 598.01 666.32 587.24 684.52 576.26 702.28 565.06 718.26 553.68 731.29 542.12 740.52 530.42 745.52 518.58 746.33 506.65 743.46 494.62 737.85 482.54 730.75 470.43 723.59 458.3 717.85 446.18 714.83 434.08 715.56 422.04 720.67 410.07 730.27 398.18 744.01 389.91 749.58 381.56 756.91 373.1 764.52 364.53 770.9 355.83 774.73 346.99 774.94 338.01 770.92 328.88 762.51 319.6 750.05 310.16 734.33 300.56 716.49 290.81 697.9 280.91 679.98 270.86 664.07 260.68 651.27 250.37 642.32 239.95 637.51 229.41 636.7 218.78 639.26 208.07 644.22 197.3 650.35 186.47 656.32 175.6 660.8 164.71 662.68 153.81 661.13 142.92 655.72 132.04 646.45 121.19 633.77 110.38 618.48 99.63 601.67 88.94 584.58 78.32 568.47 77.47 557.08 76.62 545.69 75.8 534.29 75.04 522.9 74.37 511.51 73.82 500.12 73.4 488.73 73.13 477.34 73.01 465.95 73.06 454.56 73.27 443.17 73.63 431.78 74.13 420.39 74.76 409 75.48 397.61 76.28 386.22 77.12 374.82 77.98 363.43 78.81 352.04 79.6 340.65 80.32 329.26 80.93 317.87 81.41 306.48 81.76 295.09 81.95 283.7 81.97 272.31 81.84 260.92 81.55 249.53 81.11 238.14 80.54 226.75 84.37 209.65 98.58 204.21 108.18 204.1 117.69 202.98 127.12 200.36 136.47 195.93 145.75 189.57 154.96 181.4 164.13 171.73 173.25 161.03 182.35 149.86 191.44 138.84 200.53 128.54 209.64 119.44 218.78 111.86 227.96 105.95 237.22 101.67 246.55 98.81 255.97 96.98 265.5 95.72 275.16 94.49 284.94 92.79 294.87 90.18 304.96 86.33 315.2 81.06 325.61 74.36 336.2 66.39 346.95 57.43 357.88 47.87 368.99 38.13 385.97 24.28 391.69 19.89" stroke-dasharray="27 12" transform="rotate(57.6, 400, 400)" opacity="0.20"></path><path d="M389.35 28.31Q397.5 31.56 405.69 35.85 413.94 41.37 422.27 48.19 430.7 56.24 439.26 65.3 447.95 75.03 456.8 85.01 465.82 94.79 475.03 103.9 484.43 111.95 494.05 118.64 503.89 123.82 513.95 127.49 524.25 129.83 534.78 131.16 545.56 131.93 556.57 132.65 567.81 133.87 579.27 136.08 590.95 139.7 602.84 144.98 614.92 152.03 627.18 160.74 639.59 170.82 652.14 181.83 664.8 193.23 677.55 204.39 690.37 214.72 703.23 223.69 716.1 230.91 728.95 236.16 734.29 247.97 738.95 259.77 742.79 271.58 745.66 283.38 747.48 295.19 748.16 306.99 747.7 318.8 746.11 330.6 743.44 342.4 739.79 354.21 735.27 366.01 730.06 377.82 724.32 389.62 718.26 401.43 712.09 413.23 706.02 425.04 700.25 436.84 695 448.64 690.45 460.45 686.74 472.25 684.01 484.06 682.35 495.86 681.82 507.67 682.44 519.47 684.19 531.28 687.01 543.08 690.79 554.89 695.41 566.69 700.71 578.5 706.51 590.3 712.24 611.55 704.86 624.48 690.2 620.87 674.95 611.58 658.56 603.84 641.43 603.45 632.42 609.28 623.15 618.89 613.62 631.9 603.84 647.56 593.82 664.83 583.57 682.5 573.09 699.27 562.4 713.94 551.52 725.52 540.45 733.34 529.23 737.13 517.86 737.03 506.38 733.62 494.78 727.85 483.11 720.91 471.38 714.15 459.61 708.91 447.82 706.37 436.03 707.45 424.27 712.7 412.54 722.2 400.87 735.59 392.73 740.91 384.48 747.93 376.12 755.27 367.63 761.56 359 765.52 350.23 766.17 341.31 762.86 332.24 755.4 323.02 744.01 313.64 729.36 304.11 712.42 294.44 694.43 284.62 676.7 274.67 660.51 264.59 646.96 254.4 636.84 244.1 630.6 233.71 628.24 223.23 629.35 212.68 633.19 202.08 638.69 191.44 644.65 180.77 649.84 170.08 653.09 159.4 653.5 148.72 650.45 138.07 643.71 127.45 633.43 116.89 620.15 106.37 604.72 95.92 588.2 85.54 571.76 84.65 560.53 83.76 549.3 82.92 538.07 82.15 526.84 81.47 515.62 80.92 504.39 80.51 493.16 80.26 481.93 80.17 470.7 80.25 459.47 80.49 448.24 80.89 437.01 81.42 425.79 82.09 414.56 82.85 403.33 83.69 392.1 84.57 380.87 85.47 369.64 86.35 358.41 87.19 347.18 87.94 335.96 88.6 324.73 89.13 313.5 89.52 302.27 89.75 291.04 89.82 279.81 89.72 268.59 89.46 257.36 89.04 246.13 88.48 234.9 92.2 218.24 106.08 212.99 115.48 212.37 124.78 210.42 133.99 206.8 143.13 201.32 152.19 194 161.18 185.08 170.12 174.92 179.02 164.05 187.88 153.03 196.71 142.43 205.54 132.76 214.38 124.41 223.23 117.64 232.12 112.5 241.06 108.9 250.07 106.57 259.15 105.11 268.32 104.05 277.6 102.89 287 101.15 296.53 98.43 306.2 94.45 316.02 89.07 325.99 82.31 336.13 74.32 346.44 65.4 356.91 55.92 367.56 46.31 383.86 32.64 389.35 28.31" stroke-dasharray="58 14" transform="rotate(64.8, 400, 400)" opacity="0.22"></path><path d="M387.23 36.74Q395.3 39.83 403.43 43.94 411.64 49.26 419.95 55.85 428.39 63.65 436.95 72.47 445.66 81.99 454.54 91.84 463.59 101.57 472.83 110.73 482.27 118.94 491.91 125.88 501.77 131.38 511.85 135.38 522.15 138.02 532.66 139.54 543.4 140.34 554.36 140.89 565.52 141.69 576.89 143.26 588.45 146.03 600.19 150.31 612.09 156.28 624.14 163.94 636.32 173.12 648.62 183.48 661 194.55 673.44 205.77 685.93 216.57 698.44 226.39 710.93 234.76 723.39 241.35 728.33 252.89 732.57 264.43 736 275.97 738.48 287.51 739.93 299.05 740.32 310.59 739.63 322.13 737.87 333.67 735.11 345.21 731.44 356.75 726.98 368.29 721.88 379.83 716.3 391.37 710.43 402.91 704.47 414.45 698.6 425.99 693.03 437.53 687.94 449.07 683.49 460.61 679.83 472.14 677.09 483.68 675.35 495.22 674.67 506.76 675.07 518.3 676.54 529.84 679.04 541.38 682.47 552.92 686.73 564.46 691.67 576 697.14 587.54 684.81 607.75 666.63 599.67 650.97 594.56 634.63 597.71 626.06 605.29 617.24 616.31 608.18 630.24 598.88 646.26 589.35 663.33 579.6 680.27 569.62 695.92 559.43 709.23 549.05 719.37 538.48 725.83 527.74 728.48 516.85 727.57 505.83 723.72 494.68 717.85 483.44 711.12 472.12 704.77 460.73 700.02 449.3 697.95 437.86 699.36 426.4 704.73 414.96 714.11 403.55 727.16 395.5 732.24 387.34 738.95 379.04 746.03 370.62 752.2 362.04 756.29 353.33 757.33 344.46 754.69 335.45 748.14 326.28 737.8 316.97 724.21 307.51 708.22 297.91 690.91 288.18 673.5 278.33 657.19 268.37 643.04 258.29 631.92 248.13 624.34 237.88 620.46 227.56 620.08 217.19 622.63 206.77 627.25 196.32 632.89 185.85 638.4 175.38 642.66 164.91 644.7 154.46 643.78 144.04 639.46 133.66 631.67 123.33 620.68 113.06 607.07 102.85 591.71 92.72 575.6 91.78 564.53 90.87 553.46 90.01 542.39 89.23 531.32 88.56 520.25 88.02 509.18 87.63 498.11 87.4 487.04 87.33 475.97 87.44 464.9 87.71 453.83 88.15 442.76 88.72 431.69 89.42 420.62 90.22 409.55 91.1 398.48 92.02 387.41 92.96 376.34 93.88 365.27 94.76 354.2 95.56 343.13 96.26 332.06 96.84 320.99 97.27 309.92 97.55 298.85 97.66 287.78 97.59 276.71 97.37 265.64 96.98 254.57 96.44 243.5 100.06 227.09 113.63 221.51 122.81 220.12 131.9 217.19 140.91 212.5 149.84 205.99 158.69 197.8 167.47 188.26 176.19 177.79 184.86 166.92 193.48 156.19 202.08 146.13 210.66 137.17 219.23 129.63 227.82 123.67 236.42 119.29 245.06 116.33 253.75 114.48 262.5 113.33 271.33 112.43 280.24 111.3 289.27 109.49 298.4 106.65 307.67 102.54 317.07 97.05 326.61 90.22 336.31 82.23 346.16 73.35 356.18 63.97 366.37 54.48 381.97 41.01 387.23 36.74" stroke-dasharray="59 1" transform="rotate(72, 400, 400)" opacity="0.24"></path><path d="M385.37 45.16Q393.38 48.1 401.47 52.03 409.67 57.14 417.97 63.5 426.41 71.05 434.99 79.62 443.72 88.93 452.62 98.62 461.7 108.27 470.97 117.47 480.42 125.81 490.08 133 499.94 138.8 510.01 143.16 520.28 146.12 530.76 147.89 541.44 148.8 552.32 149.27 563.38 149.77 574.62 150.8 586.03 152.8 597.59 156.13 609.29 161.04 621.12 167.6 633.05 175.76 645.06 185.28 657.14 195.79 669.26 206.81 681.4 217.8 693.54 228.21 705.65 237.53 717.7 245.36 722.24 256.61 726.07 267.86 729.09 279.1 731.19 290.35 732.31 301.6 732.41 312.84 731.5 324.09 729.6 335.34 726.77 346.59 723.1 357.83 718.7 369.08 713.71 380.33 708.29 391.57 702.62 402.82 696.86 414.07 691.2 425.32 685.81 436.56 680.87 447.81 676.53 459.06 672.93 470.3 670.18 481.55 668.36 492.8 667.54 504.04 667.74 515.29 668.95 526.54 671.14 537.79 674.23 549.03 678.13 560.28 682.72 571.53 687.85 582.77 675.75 597.21 658.23 588.28 643.25 586.26 627.66 593.01 619.5 602.17 611.11 614.35 602.5 628.94 593.67 645.07 584.61 661.7 575.33 677.76 565.84 692.19 556.15 704.1 546.26 712.82 536.19 717.99 525.94 719.6 515.53 717.97 504.98 713.76 494.29 707.86 483.5 701.37 472.6 695.45 461.62 691.19 450.59 689.57 439.5 691.3 428.39 696.78 417.27 706.03 406.16 718.74 398.18 723.58 390.07 729.99 381.83 736.81 373.45 742.85 364.93 747.03 356.25 748.42 347.44 746.42 338.47 740.72 329.36 731.4 320.11 718.87 310.73 703.86 301.22 687.33 291.58 670.35 281.84 654.06 271.99 639.49 262.05 627.5 252.03 618.71 241.93 613.39 231.78 611.5 221.59 612.66 211.36 616.19 201.11 621.2 190.85 626.68 180.59 631.57 170.34 634.87 160.13 635.77 149.94 633.7 139.8 628.36 129.72 619.79 119.69 608.34 109.73 594.62 99.84 579.47 98.87 568.56 97.94 557.65 97.07 546.75 96.29 535.84 95.63 524.93 95.11 514.02 94.74 503.12 94.54 492.21 94.5 481.3 94.64 470.39 94.95 459.49 95.42 448.58 96.02 437.67 96.76 426.76 97.59 415.86 98.51 404.95 99.46 394.04 100.44 383.13 101.4 372.22 102.32 361.32 103.16 350.41 103.9 339.5 104.53 328.59 105.01 317.68 105.33 306.78 105.48 295.87 105.46 284.96 105.27 274.05 104.92 263.14 104.41 252.24 107.95 235.9 121.21 229.55 130.18 227.2 139.07 223.19 147.88 217.41 156.6 209.94 165.24 201.02 173.81 191.02 182.32 180.42 190.77 169.71 199.17 159.43 207.54 150.02 215.88 141.84 224.2 135.14 232.52 129.99 240.85 126.34 257.61 122.81 274.51 120.86 283.08 119.71 291.74 117.81 300.5 114.83 309.37 110.58 318.36 104.98 327.49 98.09 336.75 90.09 346.16 81.28 355.72 71.99 365.44 62.63 380.35 49.36 385.37 45.16" stroke-dasharray="43 17" transform="rotate(79.2, 400, 400)" opacity="0.26"></path><path d="M383.8 53.58Q391.77 56.37 399.85 60.13 408.03 65.03 416.34 71.15 424.79 78.44 433.38 86.76 442.13 95.84 451.05 105.35 460.15 114.91 469.42 124.11 478.89 132.57 488.54 139.97 498.38 146.08 508.42 150.78 518.64 154.1 529.05 156.17 539.65 157.26 550.41 157.75 561.35 158.06 572.43 158.66 583.66 160 595.03 162.45 606.5 166.33 618.08 171.78 629.73 178.84 641.45 187.38 653.21 197.12 664.99 207.68 676.77 218.58 688.53 229.3 700.24 239.32 711.89 248.2 716.02 259.13 719.44 270.06 722.06 280.98 723.8 291.91 724.6 302.84 724.45 313.77 723.34 324.7 721.3 335.63 718.41 346.56 714.75 357.49 710.42 368.42 705.55 379.35 700.3 390.28 694.81 401.21 689.25 412.14 683.79 423.07 678.59 434 673.8 444.92 669.58 455.85 666.03 466.78 663.28 477.71 661.4 488.64 660.45 499.57 660.46 510.5 661.42 521.43 663.31 532.36 666.07 543.29 669.62 554.22 673.86 565.15 678.65 576.08 666.68 586.28 649.76 577.69 635.42 579.04 620.54 589.31 612.76 599.83 604.78 612.93 596.6 627.91 588.2 643.89 579.6 659.89 570.79 674.92 561.78 688.06 552.57 698.55 543.16 705.9 533.57 709.85 523.81 710.51 513.89 708.26 503.81 703.76 493.59 697.9 483.25 691.69 472.8 686.2 462.26 682.43 451.63 681.24 440.94 683.26 430.2 688.83 419.43 697.95 408.64 710.32 400.71 714.93 392.65 721.05 384.44 727.6 376.1 733.51 358.91 737.89 341.3 733.15 332.25 724.82 323.07 713.35 313.77 699.35 304.35 683.64 294.81 667.21 285.18 651.08 275.46 636.25 265.66 623.57 255.79 613.7 245.86 607.04 235.89 603.66 225.88 603.36 215.84 605.64 205.8 609.78 195.76 614.9 185.72 620.02 175.71 624.19 165.73 626.57 155.78 626.47 145.89 623.44 136.05 617.32 126.27 608.22 116.56 596.53 106.92 582.87 105.93 572.13 104.98 561.4 104.11 550.66 103.34 539.93 102.7 529.19 102.2 518.46 101.85 507.72 101.68 496.98 101.68 486.25 101.85 475.51 102.19 464.78 102.69 454.04 103.34 443.31 104.1 432.57 104.97 421.84 105.92 411.1 106.91 400.37 107.91 389.63 108.91 378.9 109.86 368.16 110.75 357.43 111.53 346.69 112.2 335.96 112.72 325.22 113.09 314.49 113.29 303.75 113.32 293.02 113.18 282.28 112.86 271.55 112.39 260.81 115.86 244.42 128.82 236.9 137.59 233.47 146.28 228.33 154.88 221.52 163.4 213.21 171.84 203.72 180.21 193.45 188.51 182.88 196.75 172.51 204.94 162.8 213.08 154.13 221.18 146.79 229.27 140.94 245.4 134.19 261.57 130.72 277.91 129.09 294.43 126.1 302.83 122.97 311.32 118.57 319.91 112.86 328.63 105.91 337.47 97.93 346.44 89.17 355.55 80 364.81 70.77 379.01 57.72 383.8 53.58" stroke-dasharray="64 31" transform="rotate(86.39999999999999, 400, 400)" opacity="0.28"></path><path d="M382.56 62Q390.51 64.65 398.57 68.23 406.76 72.93 415.07 78.81 423.52 85.84 432.13 93.89 440.89 102.73 449.82 112.05 458.92 121.48 468.19 130.66 477.64 139.21 487.26 146.8 497.07 153.2 507.04 158.26 517.2 161.95 527.51 164.36 537.99 165.7 548.63 166.3 559.4 166.52 570.31 166.81 581.34 167.6 592.47 169.28 603.7 172.19 615 176.55 626.36 182.47 637.76 189.92 649.18 198.72 660.61 208.58 672.02 219.11 683.39 229.83 694.7 240.27 705.94 249.93 709.66 260.52 712.69 271.11 714.93 281.7 716.32 292.3 716.82 302.89 716.42 313.48 715.13 324.07 712.98 334.66 710.04 345.25 706.39 355.84 702.14 366.43 697.4 377.02 692.3 387.61 687 398.2 681.64 408.79 676.38 419.39 671.36 429.98 666.73 440.57 662.62 451.16 659.14 461.75 656.39 472.34 654.46 482.93 653.39 493.52 653.21 504.11 653.94 514.71 655.55 525.3 657.99 535.89 661.2 546.48 665.09 557.07 669.54 567.66 657.62 575.26 641.25 568.1 627.5 572.96 613.27 586.53 605.86 598.17 598.26 611.9 590.48 627 582.51 642.61 574.34 657.8 565.98 671.68 557.42 683.47 548.68 692.57 539.75 698.59 530.64 701.41 521.36 701.21 511.92 698.43 502.32 693.73 492.57 687.95 482.7 682.06 472.7 677.02 462.59 673.73 452.4 672.95 442.12 675.25 431.77 680.89 421.38 689.88 410.95 701.9 403.05 706.29 395.02 712.11 386.85 718.4 378.54 724.16 361.43 728.99 343.91 725.43 334.93 718.05 325.83 707.62 316.61 694.64 307.29 679.82 297.87 664.02 288.36 648.19 278.78 633.26 269.13 620.06 259.42 609.28 249.66 601.39 239.87 596.58 230.06 594.8 220.23 595.72 210.4 598.78 200.58 603.23 190.78 608.23 181 612.89 171.26 616.35 161.56 617.88 151.91 616.93 142.32 613.16 132.8 606.48 123.34 597.06 113.95 585.32 112.94 574.77 112 564.22 111.13 553.68 110.38 543.13 109.76 532.58 109.28 522.04 108.97 511.49 108.83 500.94 108.86 490.4 109.07 479.85 109.44 469.3 109.98 458.76 110.65 448.21 111.45 437.67 112.35 427.12 113.32 416.57 114.34 406.03 115.38 395.48 116.41 384.93 117.4 374.39 118.32 363.84 119.15 353.29 119.86 342.75 120.43 332.2 120.84 321.65 121.09 311.11 121.17 300.56 121.07 290.02 120.8 279.47 120.37 268.92 123.79 252.36 136.45 243.4 145.02 238.82 153.51 232.6 161.92 224.86 170.24 215.87 178.49 205.98 186.66 195.64 194.76 185.3 202.79 175.42 210.77 166.39 218.69 158.54 226.58 152.07 234.43 147.07 250.07 141.64 265.71 139.04 281.46 137.51 297.33 134.35 305.38 131.06 313.51 126.51 321.72 120.7 330.04 113.7 338.47 105.73 347.02 97.05 355.69 87.99 364.5 78.91 378.01 66.07 382.56 62" stroke-dasharray="41 75" transform="rotate(93.60000000000001, 400, 400)" opacity="0.30"></path><path d="M381.67 70.42Q389.61 72.92 397.66 76.34 405.84 80.83 414.16 86.47 422.62 93.23 431.23 101.01 439.99 109.59 448.91 118.7 457.99 127.99 467.24 137.12 476.65 145.73 486.23 153.49 495.97 160.16 505.86 165.56 515.92 169.63 526.11 172.41 536.45 174.07 546.92 174.85 557.52 175.1 568.22 175.19 579.02 175.55 589.91 176.57 600.86 178.61 611.87 181.93 622.92 186.71 633.99 193.01 645.06 200.74 656.12 209.7 667.14 219.6 678.12 230.03 689.03 240.56 699.85 250.71 703.17 260.95 705.8 271.18 707.68 281.42 708.74 291.66 708.96 301.89 708.33 312.13 706.88 322.37 704.64 332.6 701.66 342.84 698.04 353.08 693.86 363.32 689.25 373.55 684.32 383.79 679.2 394.03 674.04 404.26 668.97 414.5 664.13 424.74 659.65 434.97 655.65 445.21 652.24 455.45 649.51 465.69 647.53 475.92 646.35 486.16 646.01 496.4 646.52 506.63 647.86 516.87 650 527.11 652.88 537.35 656.42 547.58 660.52 557.82 648.59 564.48 632.72 559.68 626.21 561.77 619.57 566.63 612.8 574.29 605.89 584.58 598.82 597.07 591.58 611.17 584.18 626.13 576.6 641.14 568.85 655.36 560.92 668.01 552.8 678.44 544.51 686.15 527.31 691.32 509.62 688.52 500.49 683.69 491.22 678.05 481.81 672.5 472.27 667.91 462.62 665.09 452.86 664.71 443.01 667.26 433.08 672.96 423.08 681.8 413.03 693.48 405.16 697.65 397.15 703.19 389.01 709.22 380.72 714.82 363.7 720.03 346.3 717.57 337.39 711.09 328.37 701.68 319.25 689.73 310.04 675.84 300.75 660.77 291.38 645.36 281.94 630.47 272.45 616.93 262.91 605.4 253.34 596.42 243.75 590.28 234.14 587.05 224.53 586.54 214.92 588.35 205.33 591.89 195.76 596.44 186.22 601.19 176.73 605.33 167.28 608.12 157.89 608.93 148.55 607.3 139.28 602.99 130.07 595.95 120.94 586.41 119.93 576.07 118.98 565.73 118.14 555.4 117.4 545.06 116.81 534.72 116.37 524.38 116.09 514.05 115.98 503.71 116.05 493.37 116.3 483.03 116.71 472.7 117.27 462.36 117.98 452.02 118.8 441.69 119.73 431.35 120.73 421.01 121.78 410.67 122.85 400.34 123.91 390 124.93 379.66 125.88 369.32 126.74 358.99 127.49 348.65 128.11 338.31 128.57 327.98 128.87 317.64 129 307.3 128.96 296.96 128.74 286.63 128.35 276.29 131.73 259.5 144.11 248.93 152.48 243.21 160.77 235.99 168.98 227.47 177.12 217.99 185.17 207.92 193.14 197.7 201.05 187.76 208.89 178.5 216.66 170.26 224.38 163.28 239.67 154.18 254.86 148.91 270 147.49 285.15 146.28 300.47 141.99 315.94 134.4 323.79 128.48 331.73 121.45 339.76 113.5 347.9 104.9 356.15 95.96 364.53 87.03 377.35 74.42 381.67 70.42" stroke-dasharray="3 63" transform="rotate(100.80000000000001, 400, 400)" opacity="0.32"></path><path d="M381.14 78.84Q389.07 81.2 397.12 84.45 405.3 88.74 413.62 94.13 422.07 100.63 430.67 108.13 439.41 116.44 448.31 125.32 457.36 134.45 466.56 143.5 475.91 152.13 485.41 160.04 495.06 166.95 504.85 172.68 514.78 177.13 524.83 180.32 535 182.33 545.28 183.37 555.67 183.74 566.14 183.76 576.69 183.82 587.31 184.31 597.97 185.59 608.67 187.95 619.39 191.63 630.11 196.75 640.82 203.32 651.5 211.23 662.14 220.27 672.71 230.13 683.21 240.43 693.61 250.74 696.54 260.61 698.79 270.48 700.31 280.36 701.06 290.23 701.02 300.11 700.19 309.98 698.59 319.85 696.27 329.73 693.27 339.6 689.68 349.47 685.59 359.35 681.11 369.22 676.34 379.1 671.41 388.97 666.44 398.84 661.56 408.72 656.9 418.59 652.57 428.46 648.69 438.34 645.34 448.21 642.63 458.08 640.61 467.96 639.34 477.83 638.85 487.7 639.15 497.58 640.24 507.45 642.09 517.32 644.64 527.2 647.84 537.07 651.61 546.94 639.6 554.22 624.17 552.54 617.9 556.43 611.52 562.95 605.03 572.02 598.41 583.33 591.66 596.39 584.76 610.58 577.71 625.17 570.51 639.4 563.15 652.52 555.62 663.87 547.92 672.91 540.06 679.3 523.77 682.49 506.99 678.53 498.33 673.64 489.52 668.2 480.58 663.01 471.5 658.87 462.31 656.5 453 656.51 443.59 659.29 434.09 665.04 424.51 673.72 414.86 685.06 407 689.02 399.01 694.28 390.89 700.05 382.65 705.48 365.72 711.02 348.45 709.55 339.62 703.95 330.7 695.53 321.69 684.6 312.6 671.68 303.44 657.4 294.22 642.52 284.94 627.84 275.63 614.1 266.27 602.01 256.9 592.1 247.51 584.75 238.11 580.12 228.72 578.17 219.35 578.62 209.99 581.05 200.67 584.85 191.38 589.34 182.14 593.77 172.95 597.41 163.81 599.61 154.73 599.83 145.72 597.69 136.77 593.02 127.89 585.82 126.88 575.72 125.95 565.61 125.12 555.51 124.42 545.4 123.86 535.3 123.45 525.19 123.21 515.09 123.15 504.99 123.25 494.88 123.53 484.78 123.98 474.67 124.57 464.57 125.31 454.46 126.16 444.36 127.12 434.25 128.14 424.15 129.21 414.04 130.31 403.94 131.39 393.83 132.44 383.73 133.43 373.62 134.32 363.52 135.11 353.41 135.77 343.31 136.28 333.2 136.64 323.1 136.82 312.99 136.83 302.89 136.66 292.78 136.33 282.68 139.68 265.64 151.77 253.41 159.95 246.64 168.05 238.56 176.07 229.47 184.01 219.7 191.88 209.66 199.67 199.75 207.38 190.37 215.03 181.86 222.61 174.48 230.13 168.41 245 160.92 259.75 156.88 274.4 155.92 289.04 154.75 303.76 150.14 318.6 142.22 326.11 136.21 333.69 129.15 341.35 121.23 349.1 112.72 356.94 103.92 364.89 95.14 377.05 82.76 381.14 78.84" stroke-dasharray="50 49" transform="rotate(108, 400, 400)" opacity="0.33"></path><path d="M381 87.26Q388.92 89.49 396.96 92.57 405.12 96.65 413.42 101.81 421.86 108.03 430.43 115.24 439.14 123.28 447.99 131.91 456.99 140.85 466.12 149.79 475.39 158.42 484.79 166.43 494.32 173.56 503.97 179.6 513.74 184.44 523.62 188.03 533.6 190.44 543.67 191.81 553.82 192.38 564.04 192.44 574.32 192.34 584.64 192.43 595 193.08 605.37 194.6 615.75 197.25 626.11 201.22 636.45 206.59 646.74 213.33 656.98 221.34 667.15 230.37 677.23 240.14 687.22 250.27 689.76 259.78 691.65 269.29 692.84 278.79 693.3 288.3 693.02 297.81 692 307.31 690.27 316.82 687.88 326.33 684.87 335.84 681.33 345.34 677.33 354.85 672.97 364.36 668.37 373.86 663.62 383.37 658.84 392.88 654.15 402.39 649.67 411.89 645.49 421.4 641.72 430.91 638.45 440.41 635.76 449.92 633.71 459.43 632.36 468.93 631.73 478.44 631.84 487.95 632.69 497.46 634.25 506.96 636.5 516.47 639.37 525.98 642.8 535.48 630.66 544.77 615.64 546.77 609.58 552.36 603.44 560.37 597.2 570.6 590.86 582.64 584.4 595.99 577.82 610.01 571.1 624 564.25 637.29 557.25 649.21 550.11 659.23 535.29 670.71 520 674.5 512.09 672.33 504.04 668.49 495.83 663.61 487.48 658.4 479 653.59 470.38 649.9 461.65 647.98 452.79 648.35 443.83 651.34 434.77 657.12 425.61 665.64 416.38 676.64 408.54 680.39 400.58 685.38 392.49 690.89 384.28 696.15 367.47 701.95 350.35 701.41 341.62 696.62 332.81 689.16 323.93 679.25 314.97 667.31 305.96 653.89 296.9 639.64 287.8 625.29 278.66 611.54 269.51 599.05 260.34 588.39 251.16 579.97 241.99 574.05 232.83 570.67 223.7 569.72 214.59 570.88 205.51 573.7 196.48 577.6 187.49 581.93 178.56 586.01 169.68 589.19 160.86 590.89 152.11 590.67 138.62 580.84 132.9 563.65 132.1 553.8 131.43 543.95 130.91 534.1 130.54 524.25 130.34 514.41 130.32 504.56 130.46 494.71 130.78 484.86 131.26 475.02 131.89 465.17 132.65 455.32 133.53 445.47 134.5 435.62 135.55 425.78 136.64 415.93 137.76 406.08 138.86 396.23 139.94 386.38 140.96 376.54 141.89 366.69 142.71 356.84 143.42 346.99 143.98 337.14 144.38 327.3 144.62 317.45 144.68 307.6 144.57 297.75 144.3 287.9 147.62 270.65 159.45 256.84 167.44 249.15 175.35 240.42 183.18 230.96 190.93 221.13 198.61 211.33 206.21 201.91 213.74 193.23 221.2 185.56 235.9 174.59 250.42 167.46 264.72 165.29 278.93 164.51 293.07 162.8 307.23 158.79 314.34 154.97 321.49 149.99 328.67 143.89 335.91 136.81 343.22 128.94 350.59 120.52 358.05 111.86 365.6 103.24 377.12 91.11 381 87.26" stroke-dasharray="16 54" transform="rotate(115.2, 400, 400)" opacity="0.35"></path><path d="M381.24 95.68Q389.14 97.78 397.16 100.69 405.3 104.57 413.57 109.49 421.97 115.44 430.5 122.36 439.15 130.11 447.94 138.47 456.85 147.2 465.89 156.02 475.05 164.61 484.32 172.69 493.71 179.99 503.2 186.32 512.79 191.52 522.47 195.53 532.23 198.36 542.07 200.11 551.96 200.97 561.91 201.18 571.89 201.04 581.91 200.88 591.94 201.04 601.97 201.85 611.98 203.58 621.98 206.46 631.93 210.64 641.84 216.17 651.68 223 661.44 231.01 671.11 239.98 680.67 249.6 682.85 258.75 684.39 267.89 685.26 277.04 685.45 286.18 684.95 295.32 683.76 304.47 681.92 313.61 679.47 322.76 676.47 331.9 672.97 341.04 669.07 350.19 664.85 359.33 660.4 368.48 655.83 377.62 651.25 386.76 646.74 395.91 642.43 405.05 638.4 414.19 634.75 423.34 631.55 432.48 628.89 441.62 626.83 450.77 625.4 459.91 624.64 469.06 624.58 478.2 625.2 487.34 626.5 496.49 628.45 505.63 631 514.77 634.1 523.92 621.78 536.36 607.14 542.36 601.28 549.49 595.35 558.76 589.35 569.87 583.26 582.37 577.07 595.72 570.78 609.32 564.37 622.53 557.85 634.73 551.19 645.39 544.41 654.05 530.36 663.11 515.88 665.06 500.71 658.02 485.11 648.66 468.85 641.89 452.23 640.22 443.71 643.41 435.09 649.21 426.38 657.56 417.58 668.22 409.76 671.77 401.83 676.5 393.78 681.75 385.62 686.82 368.95 692.84 352.01 693.12 343.39 689.1 334.7 682.56 325.95 673.65 317.15 662.71 308.3 650.19 299.41 636.67 290.5 622.77 281.56 609.16 272.61 596.46 263.66 585.22 254.71 575.9 245.77 568.8 236.85 564.07 227.96 561.71 219.11 561.52 210.29 563.17 201.51 566.22 192.79 570.09 184.12 574.21 175.5 577.95 158.5 581.13 141.69 578.87 140.71 569.31 139.83 559.74 139.06 550.17 138.43 540.61 137.95 531.04 137.63 521.47 137.47 511.91 137.49 502.34 137.68 492.77 138.03 483.2 138.54 473.64 139.2 464.07 139.99 454.5 140.89 444.94 141.88 435.37 142.95 425.8 144.06 416.24 145.19 406.67 146.32 397.1 147.42 387.54 148.46 377.97 149.42 368.4 150.29 358.83 151.03 349.27 151.63 339.7 152.09 330.13 152.38 320.57 152.5 311 152.46 301.43 152.24 291.86 151.86 282.3 151.33 272.73 159.26 266.62 167.12 259.26 174.92 250.85 182.64 241.69 190.28 232.1 197.86 222.44 205.35 213.07 212.78 204.31 220.13 196.45 227.4 189.69 241.73 180.51 255.88 174.92 269.78 173.56 283.57 173.12 297.24 171.18 310.89 166.81 317.73 162.81 324.58 157.69 331.47 151.52 338.39 144.43 345.36 136.61 352.39 128.3 359.48 119.79 366.65 111.34 377.57 99.45 381.24 95.68" stroke-dasharray="71 73" transform="rotate(122.4, 400, 400)" opacity="0.37"></path><path d="M381.85 104.1Q397.77 109.29 414.04 117.18 422.38 122.85 430.84 129.48 439.42 136.93 448.11 145.01 456.92 153.51 465.83 162.16 474.85 170.68 483.98 178.79 493.19 186.25 502.5 192.83 511.88 198.38 521.34 202.79 530.86 206.06 540.43 208.23 550.05 209.45 559.71 209.9 569.38 209.84 579.07 209.57 588.76 209.4 598.43 209.64 608.09 210.59 617.7 212.49 627.27 215.53 636.78 219.83 646.22 225.43 655.57 232.27 664.83 240.21 673.98 249.05 675.79 257.84 677 266.63 677.58 275.42 677.52 284.21 676.81 293 675.47 301.78 673.54 310.57 671.05 319.36 668.06 328.15 664.62 336.94 660.82 345.73 656.73 354.52 652.45 363.31 648.06 372.1 643.66 380.89 639.34 389.68 635.19 398.47 631.31 407.25 627.78 416.04 624.66 424.83 622.04 433.62 619.96 442.41 618.46 451.2 617.59 459.99 617.36 468.78 617.78 477.57 618.83 486.36 620.49 495.15 622.73 503.94 625.51 512.73 621.65 525.52 609.94 528.6 604.33 532.86 598.69 539.28 593.01 547.74 587.28 557.99 581.49 569.69 575.63 582.35 569.7 595.44 563.67 608.4 557.55 620.65 551.32 631.68 544.99 641.02 538.54 648.35 525.22 655.14 511.51 655.44 497.16 648.04 482.42 639 467.04 633.06 451.3 632.14 443.23 635.5 435.06 641.3 426.79 649.47 418.42 659.8 410.63 663.15 402.74 667.62 394.74 672.62 386.65 677.51 370.15 683.68 353.41 684.7 344.92 681.41 336.38 675.74 327.78 667.81 319.14 657.87 310.47 646.29 301.77 633.56 293.06 620.23 284.33 606.9 275.6 594.16 266.88 582.53 258.17 572.48 249.47 564.36 240.8 558.4 232.17 554.66 215.03 554.24 198.04 558.53 189.64 562.32 181.3 566.2 164.82 571.39 148.54 572.45 147.59 563.18 146.75 553.92 146.03 544.65 145.44 535.39 145.01 526.13 144.73 516.86 144.62 507.6 144.68 498.33 144.91 489.07 145.3 479.81 145.84 470.54 146.53 461.28 147.34 452.01 148.26 442.75 149.28 433.49 150.36 424.22 151.48 414.96 152.63 405.69 153.78 396.43 154.9 387.17 155.96 377.9 156.95 368.64 157.85 359.38 158.63 350.11 159.28 340.85 159.78 331.58 160.13 322.32 160.32 313.06 160.33 303.79 160.18 294.53 159.87 285.27 159.39 276 167.13 268.89 174.8 260.76 182.4 251.87 189.94 242.52 197.4 233.04 204.79 223.77 212.11 215.02 219.35 207.05 226.53 200.09 233.63 194.28 247.6 186.86 261.39 182.69 274.91 181.98 288.29 181.75 301.52 179.51 314.71 174.74 327.88 164.82 341.11 151.99 347.77 144.24 354.47 136.06 361.22 127.7 368.03 119.42 378.38 107.79 381.85 104.1" stroke-dasharray="14 7" transform="rotate(129.6, 400, 400)" opacity="0.39"></path><path d="M382.83 112.51Q398.6 116.96 414.8 124.88 431.43 136.6 448.48 151.54 465.92 168.25 483.72 184.77 501.84 199.13 520.2 209.8 538.75 216.13 557.42 218.54 576.11 218.43 594.76 217.91 613.27 219.28 631.56 224.42 649.54 234.34 667.12 248.92 669.49 265.81 669.5 282.71 667.14 299.61 662.61 316.5 656.27 333.4 648.63 350.3 640.29 367.19 631.93 384.09 624.22 400.99 617.77 417.89 613.1 434.78 610.58 451.68 610.42 468.58 612.63 485.48 617.03 502.37 623.27 519.27 612.22 518.01 601.26 523.76 590.3 537.41 579.23 557.88 568 582.39 556.51 607.11 544.71 628.05 532.54 642.1 519.95 647.77 506.91 645.65 493.4 638.24 479.41 629.41 464.95 623.48 450.02 624.1 434.66 633.4 418.89 651.38 403.31 658.76 387.36 668.2 371.1 675.25 354.58 676.16 337.84 668.7 320.96 652.76 303.99 630.26 286.98 604.7 270 580.23 253.09 560.68 236.31 548.59 219.68 544.63 203.26 547.51 187.06 554.27 171.09 561.09 155.38 564.22 153.67 546.33 152.46 528.45 151.85 510.56 151.89 492.68 152.58 474.79 153.87 456.91 155.64 439.02 157.77 421.14 160.07 403.25 162.36 385.37 164.46 367.49 166.21 349.6 167.45 331.72 168.1 313.83 168.1 295.95 167.45 278.07 182.46 261.52 197.23 243.12 211.72 225.3 225.93 210.24 239.86 199.4 253.52 193.16 266.93 190.75 280.11 190.53 293.09 190.37 305.93 188.23 318.66 182.59 331.34 172.88 344.04 159.52 356.81 143.79 369.72 127.5 382.83 112.51 382.83 112.51 382.83 112.51" stroke-dasharray="3 50" transform="rotate(136.8, 400, 400)" opacity="0.41"></path><path d="M384.16 120.93Q399.79 125.11 415.82 132.59 432.23 143.73 449.01 158.05 466.12 174.27 483.53 190.62 501.18 205.22 519.02 216.54 536.99 223.76 555.01 227.01 573.02 227.35 590.94 226.56 608.68 226.78 626.17 229.94 643.34 237.39 660.11 249.49 661.86 265.75 661.4 282 658.77 298.25 654.16 314.5 647.92 330.75 640.52 347 632.52 363.25 624.52 379.5 617.11 395.75 610.87 412 606.25 428.25 603.6 444.5 603.12 460.75 604.86 477 608.67 493.25 614.27 509.5 603.42 511.41 592.68 520.45 581.98 536.61 571.24 558.23 560.38 582.35 549.33 605.36 538.03 623.82 526.42 635.31 514.45 638.96 502.1 635.72 489.32 628.17 476.11 619.91 462.47 614.83 448.38 616.1 433.88 625.51 418.98 642.96 403.53 649.92 387.77 658.91 371.74 665.93 355.5 667.5 339.11 661.45 322.61 647.38 306.06 626.75 289.52 602.48 273.03 578.25 256.64 557.69 240.39 543.5 224.31 536.87 208.44 537.26 192.79 542.5 177.37 549.4 162.2 554.44 160.58 537.23 159.48 520.02 158.97 502.8 159.11 485.59 159.88 468.38 161.22 451.17 163.03 433.96 165.17 416.75 167.49 399.53 169.81 382.32 171.95 365.11 173.76 347.9 175.1 330.69 175.86 313.47 175.99 296.26 175.49 279.05 190.11 261.71 204.5 243.68 218.63 227.17 232.49 213.97 246.08 205.07 259.41 200.43 272.48 199.06 285.32 199.24 297.94 198.96 310.4 196.41 322.72 190.35 334.96 180.37 347.16 167 359.39 151.5 371.71 135.57 384.16 120.93 384.16 120.93 384.16 120.93" stroke-dasharray="50 76" transform="rotate(144, 400, 400)" opacity="0.43"></path><path d="M385.8 129.35Q401.26 133.26 417.06 140.31 433.2 150.88 449.66 164.56 466.38 180.25 483.35 196.34 500.5 211.1 517.78 222.99 535.13 231.1 552.49 235.27 569.78 236.25 586.94 235.49 603.91 234.9 620.61 236.4 636.97 241.52 652.95 251.03 654.12 266.67 653.23 282.32 650.36 297.96 645.7 313.61 639.58 329.25 632.43 344.89 624.76 360.54 617.11 376.18 610.01 391.82 603.97 407.46 599.41 423.11 596.65 438.75 595.89 454.39 597.18 470.04 600.42 485.68 605.4 501.32 594.73 506.54 584.21 518.57 573.76 536.69 563.32 558.84 552.8 582.05 542.16 603.04 531.31 618.95 520.22 628 508.83 629.83 497.11 625.69 485.02 618.13 472.55 610.51 459.68 606.26 446.41 608.13 432.74 617.61 418.69 634.54 403.41 641.08 387.87 649.63 372.12 656.57 356.21 658.72 340.19 653.97 324.11 641.71 308.02 622.98 291.96 600.17 275.99 576.5 260.13 555.32 244.43 539.36 228.91 530.22 213.59 527.97 198.5 531.22 183.64 537.43 169.01 543.47 167.5 526.95 166.51 510.43 166.12 493.91 166.35 477.39 167.19 460.87 168.58 444.35 170.42 427.83 172.58 411.31 174.91 394.79 177.25 378.26 179.43 361.74 181.29 345.22 182.71 328.7 183.59 312.18 183.86 295.66 183.5 279.14 197.74 261.59 211.75 244.41 225.52 229.53 239.04 218.31 252.3 211.3 265.3 208.12 278.04 207.59 290.55 208.01 302.83 207.51 314.93 204.51 326.87 198.01 338.7 187.79 350.46 174.44 362.19 159.18 373.95 143.62 385.8 129.35 385.8 129.35 385.8 129.35" stroke-dasharray="66 78" transform="rotate(151.2, 400, 400)" opacity="0.45"></path><path d="M387.73 137.77Q402.96 141.41 418.49 148.05 434.31 158.03 450.39 171.06 466.68 186.18 483.15 201.95 499.76 216.77 516.44 229.15 533.14 238.09 549.8 243.23 566.37 245.01 582.78 244.57 598.96 243.54 614.87 243.74 630.44 246.77 645.63 253.72 646.26 268.79 644.99 283.87 641.91 298.95 637.23 314.03 631.24 329.1 624.35 344.18 617.01 359.26 609.7 374.34 602.91 389.41 597.07 404.49 592.58 419.57 589.73 434.65 588.71 449.72 589.58 464.8 592.3 479.88 596.67 494.95 586.18 503.39 575.86 517.96 565.65 537.42 555.48 559.5 545.29 581.34 535.01 600.08 524.58 613.43 513.97 620.18 503.11 620.42 491.98 615.57 480.54 608.15 468.75 601.2 456.62 597.77 444.12 600.21 431.25 609.73 418.02 626.12 402.96 632.26 387.69 640.36 372.26 647.2 356.72 649.85 341.11 646.28 325.47 635.76 309.87 618.94 294.32 597.73 278.88 574.89 263.57 553.46 248.43 536.12 233.48 524.71 218.73 519.82 204.2 520.73 189.9 525.57 175.82 531.73 174.42 515.91 173.55 500.09 173.27 484.27 173.6 468.45 174.51 452.63 175.95 436.81 177.82 420.98 179.99 405.16 182.33 389.34 184.68 373.52 186.88 357.7 188.8 341.88 190.3 326.05 191.28 310.23 191.69 294.41 191.49 278.59 205.33 261.4 218.97 245.51 232.39 232.51 245.56 223.32 258.49 218.09 271.16 216.18 283.59 216.3 295.78 216.79 307.74 215.97 319.51 212.49 331.09 205.56 342.54 195.13 353.88 181.82 365.17 166.84 376.43 151.67 387.73 137.77 387.73 137.77 387.73 137.77" stroke-dasharray="6 54" transform="rotate(158.4, 400, 400)" opacity="0.47"></path><path d="M389.91 146.19Q404.86 149.58 420.07 155.8 435.51 165.21 451.16 177.57 466.97 192.08 482.91 207.46 498.93 222.24 514.98 235.02 531.01 244.73 546.96 250.86 562.78 253.56 578.43 253.68 593.83 252.56 608.95 251.84 623.74 253.12 638.16 257.68 638.29 272.23 636.68 286.78 633.43 301.33 628.75 315.88 622.91 330.43 616.28 344.98 609.27 359.53 602.29 374.09 595.8 388.64 590.17 403.19 585.76 417.74 582.84 432.29 581.59 446.85 582.08 461.4 584.28 475.95 588.07 490.5 577.77 501.85 567.65 518.4 557.66 538.55 547.75 559.98 537.85 580.06 527.9 596.4 517.87 607.25 507.69 611.88 497.33 610.75 486.74 605.4 475.89 598.23 464.75 592 453.3 589.36 441.53 592.32 429.43 601.85 416.99 617.7 402.19 623.45 387.24 631.11 372.17 637.8 357.03 640.87 341.87 638.39 326.72 629.5 311.62 614.57 296.61 595.07 281.72 573.31 266.98 552 252.41 533.68 238.03 520.32 223.86 512.9 209.9 511.27 196.16 514.23 182.63 519.7 181.36 504.57 180.61 489.45 180.45 474.32 180.87 459.2 181.85 444.07 183.33 428.94 185.22 413.82 187.4 398.69 189.74 383.57 192.1 368.44 194.32 353.32 196.28 338.19 197.85 323.07 198.94 307.94 199.48 292.82 199.44 277.69 212.89 261.41 226.16 247.19 239.21 236.21 252.04 229.02 264.64 225.43 277 224.58 289.11 225.15 300.99 225.56 312.65 224.34 324.1 220.35 335.35 213.01 346.45 202.39 357.42 189.17 368.29 174.48 379.11 159.71 389.91 146.19 389.91 146.19 389.91 146.19" stroke-dasharray="48 6" transform="rotate(165.6, 400, 400)" opacity="0.49"></path><path d="M392.29 154.61Q406.91 157.75 421.74 163.56 436.76 172.4 451.93 184.09 467.22 197.95 482.58 212.88 497.98 227.54 513.37 240.6 528.7 250.99 543.93 258.08 559.01 261.8 573.88 262.68 588.51 261.81 602.86 260.58 616.88 260.51 630.54 262.95 630.21 277.01 628.31 291.08 624.93 305.14 620.26 319.2 614.59 333.26 608.22 347.33 601.53 361.39 594.89 375.45 588.68 389.51 583.27 403.58 578.95 417.64 575.98 431.7 574.52 445.76 574.66 459.83 576.39 473.89 579.61 487.95 569.49 501.74 559.57 519.63 549.8 539.83 540.13 560.09 530.5 578.12 520.88 591.97 511.2 600.41 501.42 603.14 491.5 600.88 481.41 595.21 471.11 588.39 460.57 582.9 449.76 581.03 438.68 584.46 427.3 593.97 415.62 609.28 401.13 614.65 386.54 621.87 371.88 628.38 357.18 631.8 342.5 630.29 327.86 622.94 313.3 609.86 298.84 592.14 284.52 571.69 270.36 550.84 256.38 531.95 242.58 517.01 228.99 507.27 215.6 503.07 202.42 503.75 189.44 507.84 188.3 493.4 187.7 478.96 187.65 464.52 188.16 450.08 189.2 435.63 190.72 421.19 192.63 406.75 194.81 392.31 197.14 377.87 199.5 363.43 201.74 348.98 203.73 334.54 205.37 320.1 206.56 305.66 207.23 291.22 207.35 276.78 220.41 261.87 233.29 249.59 245.99 240.71 258.48 235.42 270.74 233.26 282.78 233.26 294.59 234.07 306.17 234.27 317.53 232.58 328.68 228.07 339.62 220.34 350.4 209.58 361.02 196.47 371.52 182.1 387.11 161.18 392.29 154.61" stroke-dasharray="22 65" transform="rotate(172.79999999999998, 400, 400)" opacity="0.51"></path><path d="M394.83 163.03Q409.06 165.93 423.47 171.34 438.01 179.61 452.66 190.62 467.38 203.81 482.14 218.22 496.89 232.65 511.6 245.89 526.22 256.87 540.71 264.86 555.03 269.62 569.14 271.45 583.01 271.1 596.59 269.76 609.85 268.79 622.77 269.51 622.04 283.11 619.87 296.72 616.39 310.32 611.78 323.93 606.27 337.53 600.17 351.14 593.79 364.74 587.48 378.35 581.56 391.95 576.36 405.55 572.14 419.16 569.14 432.76 567.5 446.37 567.33 459.97 568.61 473.57 571.3 487.18 561.37 502.8 551.65 521.35 542.09 540.98 532.65 559.64 523.28 575.4 513.94 586.76 504.59 592.95 495.18 594.01 485.68 590.84 476.05 585.03 466.25 578.66 456.26 573.92 446.05 572.78 435.6 576.64 424.9 586.1 413.94 600.86 399.81 605.86 385.62 612.65 371.41 618.96 357.2 622.65 343.03 622.01 328.93 616.09 314.92 604.79 301.04 588.9 287.31 569.93 273.74 549.85 260.34 530.79 247.13 514.69 234.12 502.95 221.31 496.25 208.69 494.46 196.26 496.64 195.27 482.86 194.8 469.08 194.86 455.3 195.47 441.52 196.57 427.74 198.12 413.96 200.04 400.19 202.22 386.41 204.54 372.63 206.89 358.85 209.14 345.07 211.16 331.29 212.86 317.51 214.14 303.73 214.94 289.95 215.21 276.17 227.87 263.04 240.38 252.85 252.71 246.05 264.85 242.49 276.79 241.54 288.51 242.14 300.01 243.02 311.3 242.89 322.36 240.66 333.22 235.63 343.88 227.55 354.35 216.68 364.65 203.72 374.82 189.7 389.84 169.4 394.83 163.03" stroke-dasharray="26 43" transform="rotate(180, 400, 400)" opacity="0.53"></path><path d="M397.46 171.45Q411.27 174.12 425.2 179.14 439.22 186.85 453.31 197.18 467.43 209.67 481.55 223.5 495.63 237.62 509.64 250.91 523.53 262.35 537.28 271.17 550.85 276.98 564.2 279.85 577.31 280.29 590.14 279.21 608.22 284.08 611.39 303.56 607.83 316.73 603.28 329.9 597.96 343.07 592.12 356.24 586.06 369.41 580.07 382.58 574.44 395.75 569.45 408.92 565.34 422.09 562.32 435.26 560.54 448.43 560.07 461.6 560.95 474.76 563.13 487.93 553.4 504.71 543.88 523.24 534.52 541.75 525.31 558.46 516.19 571.82 507.12 580.77 498.07 584.9 489.01 584.53 479.88 580.67 470.67 574.88 461.33 569.04 451.85 565.06 442.19 564.62 432.33 568.85 422.27 578.23 411.97 592.44 398.26 597.09 384.52 603.45 370.79 609.53 357.1 613.42 343.47 613.54 329.93 608.93 316.51 599.35 303.22 585.3 290.08 567.93 277.11 548.9 264.31 530.07 251.7 513.23 239.27 499.87 227.04 490.91 214.98 486.6 203.11 486.49 202.27 473.35 201.93 460.21 202.11 447.06 202.8 433.92 203.96 420.78 205.54 407.63 207.46 394.49 209.63 381.34 211.93 368.2 214.27 355.06 216.51 341.91 218.56 328.77 220.31 315.63 221.68 302.48 222.6 289.34 223.02 276.19 235.28 265.1 247.41 257.08 259.37 252.24 271.16 250.21 282.76 250.21 294.16 251.18 305.36 251.95 316.35 251.38 327.13 248.59 337.71 243.04 348.08 234.64 358.27 223.71 368.28 210.94 378.14 197.27 392.66 177.62 397.46 171.45" stroke-dasharray="45 46" transform="rotate(187.20000000000002, 400, 400)" opacity="0.54"></path><path d="M400.15 179.87Q413.48 182.32 426.89 186.96 440.35 194.11 453.84 203.76 467.33 215.52 480.78 228.72 494.17 242.44 507.47 255.68 520.63 267.45 533.64 276.99 546.46 283.8 559.06 287.77 571.42 289.18 583.52 288.68 600.37 292.94 602.85 311.4 599.26 324.15 594.79 336.9 589.66 349.65 584.09 362.4 578.34 375.15 572.66 387.9 567.31 400.65 562.54 413.4 558.55 426.15 555.53 438.89 553.62 451.64 552.9 464.39 553.4 477.14 555.11 489.89 545.58 507.11 536.26 524.98 527.12 541.91 518.13 556.42 509.24 567.34 500.44 574 491.67 576.29 482.92 574.75 474.14 570.42 465.32 564.79 456.41 559.54 447.38 556.32 438.23 556.53 428.92 561.1 419.44 570.37 409.76 584.02 396.51 588.33 383.27 594.27 370.06 600.11 356.92 604.12 343.86 604.9 330.91 601.49 318.08 593.53 305.4 581.29 292.87 565.64 280.5 547.88 268.31 529.63 256.29 512.49 244.45 497.94 232.79 487.03 221.3 480.32 209.98 477.76 209.29 465.22 209.09 452.68 209.38 440.14 210.15 427.6 211.36 415.06 212.96 402.52 214.88 389.98 217.03 377.44 219.32 364.9 221.63 352.36 223.87 339.82 225.94 327.28 227.73 314.74 229.18 302.2 230.21 289.66 230.78 277.12 242.63 268.22 254.37 262.31 265.96 259.24 277.39 258.48 288.65 259.17 299.73 260.29 310.62 260.78 321.32 259.69 331.82 256.31 342.11 250.29 352.22 241.61 362.13 230.66 371.87 218.1 381.44 204.83 395.51 185.83 400.15 179.87" stroke-dasharray="14 7" transform="rotate(194.4, 400, 400)" opacity="0.56"></path><path d="M402.84 188.29Q415.64 190.52 428.49 194.79 441.36 201.4 454.22 210.37 467.05 221.4 479.82 233.92 492.5 247.16 505.08 260.21 517.51 272.19 529.78 282.32 541.85 290.05 553.72 295.12 565.35 297.62 576.72 297.98 592.4 302.26 594.27 319.96 590.67 332.3 586.31 344.63 581.37 356.96 576.07 369.3 570.62 381.63 565.25 393.96 560.18 406.3 555.62 418.63 551.76 430.97 548.76 443.3 546.75 455.64 545.8 467.97 545.97 480.3 547.23 492.64 537.92 509.6 528.81 526.24 519.88 541.23 511.11 553.4 502.46 561.93 493.9 566.48 485.4 567.19 476.95 564.72 468.49 560.13 460.02 554.79 442.86 549.35 425.4 553.38 416.46 562.51 407.36 575.6 394.61 579.59 381.9 585.11 369.25 590.67 356.69 594.77 344.22 596.11 331.88 593.77 319.66 587.32 307.59 576.84 295.68 562.95 283.92 546.67 272.34 529.3 260.92 512.3 249.66 497 238.58 484.56 227.65 475.69 216.88 470.7 216.35 458.73 216.28 446.76 216.67 434.79 217.52 422.82 218.78 410.85 220.4 398.88 222.31 386.91 224.44 374.94 226.7 362.97 228.99 351 231.21 339.03 233.28 327.06 235.11 315.09 236.63 303.12 237.76 291.15 238.47 279.18 249.92 272.49 261.25 268.55 272.47 267.01 283.54 267.23 294.45 268.34 305.21 269.4 315.78 269.48 326.18 267.8 336.39 263.84 346.42 257.36 356.25 248.46 365.91 237.53 375.38 225.23 384.69 212.36 398.34 194.04 402.84 188.29" stroke-dasharray="34 8" transform="rotate(201.60000000000002, 400, 400)" opacity="0.58"></path><path d="M405.47 196.71Q417.71 198.74 429.96 202.64 442.2 208.72 454.4 217.02 466.56 227.3 478.63 239.1 490.6 251.77 502.45 264.53 514.15 276.57 525.69 287.14 537.03 295.67 548.17 301.81 559.09 305.46 569.77 306.87 584.33 311.75 585.65 328.92 582.06 340.83 577.82 352.75 573.1 364.66 568.06 376.58 562.91 388.49 557.84 400.41 553.04 412.33 548.7 424.24 544.97 436.16 542.01 448.07 539.92 459.99 538.78 471.91 538.63 483.82 539.49 495.74 530.41 511.79 521.53 526.76 512.82 539.56 504.27 549.34 487.57 556.64 471.11 554.51 462.96 549.85 454.82 544.91 438.42 540.78 421.83 545.69 413.38 554.65 404.8 567.18 392.6 570.85 380.46 575.98 368.4 581.25 356.44 585.37 344.59 587.16 332.86 585.77 321.27 580.72 309.83 571.94 298.53 559.83 287.39 545.15 276.41 528.95 265.59 512.45 254.92 496.89 244.41 483.36 234.04 472.71 223.81 465.45 223.44 454.02 223.5 442.59 224 431.15 224.92 419.72 226.22 408.29 227.85 396.86 229.75 385.43 231.85 373.99 234.07 362.56 236.33 351.13 238.53 339.7 240.6 328.27 242.46 316.83 244.03 305.4 245.26 293.97 246.1 282.54 257.13 277.95 268.06 275.75 278.89 275.45 289.59 276.34 300.15 277.62 310.57 278.42 320.83 277.98 330.92 275.68 340.84 271.14 350.59 264.25 360.16 255.17 369.56 244.33 378.78 232.32 387.83 219.88 401.1 202.24 405.47 196.71" stroke-dasharray="19 26" transform="rotate(208.79999999999998, 400, 400)" opacity="0.60"></path><path d="M407.99 205.13Q419.63 206.96 431.25 210.52 442.84 216.08 454.37 223.71 465.83 233.24 477.2 244.29 488.46 256.33 499.59 268.68 510.56 280.63 521.37 291.49 532 300.68 542.43 307.78 552.65 312.59 562.65 315.15 576.15 321.1 576.99 337.91 573.44 349.4 569.34 360.88 564.83 372.37 560.06 383.85 555.21 395.34 550.43 406.83 545.9 418.31 541.77 429.8 538.19 441.29 535.27 452.77 533.13 464.26 531.82 475.75 531.41 487.24 531.9 498.72 523.06 513.33 514.41 526.28 505.93 536.75 497.61 544.2 481.38 548.08 465.44 544.18 449.74 535.76 434.05 530.85 426.17 532.74 418.24 538.02 410.24 546.79 402.15 558.76 390.53 562.13 378.99 566.86 367.55 571.84 356.21 575.92 344.98 578.08 333.89 577.52 322.93 573.73 312.11 566.55 301.44 556.2 290.92 543.21 280.54 528.4 270.32 512.76 260.23 497.37 250.29 483.24 240.48 471.26 230.8 462.06 230.57 451.14 230.76 440.21 231.36 429.29 232.34 418.36 233.67 407.44 235.31 396.51 237.19 385.59 239.26 374.67 241.44 363.74 243.66 352.82 245.83 341.89 247.89 330.97 249.77 320.05 251.39 309.12 258.48 291.39 274.79 283.82 285.22 284.42 295.54 285.7 305.74 286.89 315.81 287.28 325.74 286.23 335.53 283.29 345.15 278.21 354.62 270.96 363.92 261.77 373.06 251.05 382.03 239.36 390.84 227.37 403.74 210.44 407.99 205.13" stroke-dasharray="28 11" transform="rotate(216, 400, 400)" opacity="0.62"></path><path d="M410.35 213.55Q421.35 215.19 432.33 218.42 443.24 223.48 454.09 230.45 464.86 239.22 475.52 249.5 486.06 260.84 496.47 272.69 506.73 284.41 516.83 295.39 526.76 305.07 536.5 312.99 546.05 318.88 555.39 322.65 567.87 329.99 568.3 346.59 564.81 357.63 560.86 368.67 556.57 379.71 552.07 390.75 547.51 401.79 543.02 412.83 538.76 423.87 534.84 434.9 531.41 445.94 528.55 456.98 526.37 468.02 524.93 479.06 524.28 490.1 524.44 501.14 515.86 513.88 507.46 524.6 499.22 532.74 491.13 538 475.39 538.98 459.94 533.8 444.81 526.24 429.76 522.62 422.24 524.97 414.7 530.39 407.11 538.94 399.46 550.34 388.45 553.42 377.54 557.77 366.72 562.44 356.02 566.44 345.44 568.88 334.99 569.03 324.66 566.37 314.48 560.68 304.43 552.03 294.52 540.78 284.75 527.51 275.11 513.02 265.61 498.21 256.23 483.97 246.97 471.15 237.83 460.45 237.75 450.01 238.06 439.57 238.75 429.12 239.78 418.68 241.14 408.24 242.78 397.8 244.64 387.36 246.67 376.92 248.8 366.48 250.97 356.04 253.11 345.59 255.16 335.15 257.03 324.71 258.69 314.27 265.7 298.06 281.43 292.61 291.46 293.78 301.39 295.15 311.22 296.05 320.93 295.89 330.52 294.19 339.98 290.61 349.3 285.03 358.48 277.49 367.51 268.24 376.38 257.7 385.1 246.37 393.67 234.85 406.22 218.64 410.35 213.55" stroke-dasharray="54 6" transform="rotate(223.2, 400, 400)" opacity="0.64"></path><path d="M412.5 221.97Q422.85 223.43 433.16 226.34 443.39 230.91 453.55 237.25 463.61 245.26 473.56 254.75 483.4 265.35 493.1 276.59 502.66 287.95 512.06 298.89 521.31 308.87 530.38 317.45 539.27 324.3 547.98 329.24 559.5 338.14 559.58 354.6 556.18 365.17 552.4 375.74 548.33 386.31 544.1 396.88 539.82 407.45 535.62 418.02 531.61 428.59 527.91 439.16 524.62 449.73 521.85 460.3 519.65 470.87 518.11 481.44 517.25 492.01 517.12 502.58 508.81 513.18 500.67 521.59 484.91 529.52 469.54 530.2 454.68 523.35 440.04 516.15 425.62 515.78 411.23 522.79 404.02 531.09 396.78 541.92 386.41 544.73 376.13 548.71 365.97 553.05 355.92 556.94 345.98 559.57 336.17 560.3 326.49 558.64 316.93 554.31 307.5 547.28 298.2 537.76 289.03 526.14 279.98 513.04 271.05 499.15 262.23 485.26 253.52 472.12 244.92 460.42 244.98 450.44 245.41 440.47 246.17 430.49 247.26 420.51 248.63 410.53 250.26 400.56 252.09 390.58 254.08 380.6 256.16 370.62 258.28 360.65 260.37 350.67 262.39 340.69 264.27 330.71 265.95 320.73 272.84 305.83 287.97 301.96 297.59 303.37 307.12 304.57 316.57 305 325.92 304.2 335.16 301.82 344.28 297.63 353.28 291.6 362.16 283.84 370.9 274.6 379.5 264.28 387.97 253.35 396.29 242.31 408.48 226.83 412.5 221.97" stroke-dasharray="65 29" transform="rotate(230.4, 400, 400)" opacity="0.66"></path><path d="M414.4 230.39Q424.08 231.68 433.71 234.28 443.25 238.39 452.71 244.1 462.08 251.37 471.33 260.05 480.47 269.86 489.48 280.42 498.35 291.3 507.08 302.02 515.66 312.12 524.08 321.16 532.35 328.8 540.45 334.79 551.06 345.3 550.84 361.65 547.55 371.72 543.94 381.79 540.1 391.87 536.13 401.94 532.13 412.02 528.21 422.09 524.46 432.16 520.97 442.24 517.84 452.31 515.15 462.39 512.97 472.46 511.34 482.54 510.32 492.61 509.92 502.69 501.91 511.03 494.05 517.18 478.81 521.57 463.95 520 449.6 513.19 435.49 506.94 421.65 507.7 407.89 515.21 401.03 523.24 394.16 533.51 384.45 536.05 374.83 539.67 365.32 543.69 355.92 547.42 346.64 550.17 337.47 551.38 328.42 550.57 319.5 547.46 310.68 541.94 301.99 534.1 293.41 524.18 284.94 512.62 276.58 499.95 268.31 486.81 260.14 473.85 252.06 461.69 252.27 452.17 252.79 442.64 253.63 433.11 254.76 423.59 256.14 414.06 257.76 404.54 259.55 395.01 261.49 385.48 263.51 375.96 265.57 366.43 267.62 356.91 269.6 347.38 271.46 337.86 273.15 328.33 279.91 314.52 294.42 311.64 303.61 312.99 312.74 313.8 321.79 313.62 330.76 312.13 339.63 309.06 348.41 304.32 357.08 297.91 365.64 290 374.08 280.84 382.4 270.79 390.59 260.28 398.66 249.76 410.5 235.02 414.4 230.39" stroke-dasharray="57 64" transform="rotate(237.60000000000002, 400, 400)" opacity="0.68"></path><path d="M416.01 238.81Q425.02 239.94 433.95 242.24 442.81 245.91 451.58 251.02 460.25 257.56 468.82 265.44 477.27 274.43 485.6 284.24 493.81 294.52 501.88 304.87 509.82 314.89 517.62 324.18 525.27 332.41 532.78 339.28 542.54 351.28 542.09 367.47 538.92 377.03 535.5 386.58 531.89 396.13 528.18 405.68 524.45 415.24 520.8 424.79 517.3 434.34 514.03 443.9 511.06 453.45 508.47 463 506.31 472.56 504.63 482.11 499.31 499.49 487.58 511.37 472.9 512.77 458.57 509.56 444.74 503.11 431.15 497.94 417.88 499.74 404.72 507.66 398.19 515.39 391.66 525.09 382.61 527.38 373.66 530.65 364.81 534.35 356.07 537.89 338.97 541.44 322.19 540.14 313.98 536 305.89 529.74 297.89 521.51 289.99 511.59 282.19 500.37 274.47 488.33 266.83 475.99 259.28 463.9 259.61 454.82 260.23 445.75 261.13 436.67 262.28 427.59 263.67 418.51 265.26 409.43 267.02 400.35 268.9 391.27 270.86 382.19 272.85 373.12 274.84 364.04 276.77 354.96 278.61 345.88 280.31 336.8 286.9 323.88 300.77 321.45 318.2 322.15 335.45 319.62 343.94 315.91 352.36 310.67 360.68 303.97 368.91 295.98 377.04 286.97 385.06 277.24 392.97 267.19 400.77 257.19 412.23 243.21 416.01 238.81" stroke-dasharray="61 40" transform="rotate(244.8, 400, 400)" opacity="0.70"></path><path d="M417.29 247.23Q433.88 250.23 450.14 258 466.02 270.91 481.48 288.07 496.48 307.5 510.99 326.58 525.01 342.69 538.51 353.9 533.32 371.91 527.06 389.92 520.24 407.94 513.39 425.95 507.07 443.96 501.79 461.98 497.97 479.99 495.91 498 481.27 504.21 467.12 503.84 453.4 498.98 440.07 492.88 427.06 489.17 414.31 490.98 401.76 500.13 389.33 516.67 372.66 521.67 356.39 528.36 340.51 532.99 325.02 532.37 309.91 524.67 295.15 509.83 280.71 489.49 266.56 466.64 267.71 449.38 269.84 432.12 272.78 414.86 276.3 397.6 280.12 380.35 283.92 363.09 287.41 345.83 290.31 328.58 307.02 331.13 323.6 331.15 339.99 326.62 356.12 316.68 371.96 301.79 387.46 283.63 402.58 264.6 417.29 247.23 417.29 247.23 417.29 247.23" stroke-dasharray="35 41" transform="rotate(251.99999999999997, 400, 400)" opacity="0.71"></path><path d="M418.23 255.65Q433.47 258.25 448.38 265.06 462.94 276.5 477.12 291.97 490.88 309.99 504.22 328.45 517.13 345.09 529.6 357.99 524.54 374.87 518.64 391.74 512.3 408.62 505.98 425.5 500.12 442.37 495.12 459.25 491.36 476.12 489.08 493 475.12 495.84 461.59 493.58 448.45 488.39 435.68 483.09 423.22 480.63 411.02 483.38 399.04 492.62 387.21 508.25 371.88 512.71 356.9 518.84 342.28 523.57 328.01 524.17 314.06 518.87 300.42 507.19 287.05 490.03 273.92 469.45 275.24 453.11 277.42 436.77 280.32 420.43 283.71 404.09 287.37 387.75 291.04 371.41 294.46 355.06 297.39 338.72 313.17 340.46 328.85 339.03 344.37 333.11 359.7 322.34 374.79 307.44 389.6 289.97 404.09 272 418.23 255.65 418.23 255.65 418.23 255.65" stroke-dasharray="2 72" transform="rotate(259.2, 400, 400)" opacity="0.73"></path><path d="M418.8 264.07Q432.71 266.29 446.31 272.2 459.6 282.21 472.53 295.98 485.11 312.42 497.32 329.9 509.16 346.56 520.63 360.64 515.77 376.34 510.24 392.04 504.39 407.75 498.57 423.45 493.15 439.15 488.46 454.86 484.79 470.56 482.35 486.27 469.1 486.43 456.23 482.96 443.72 477.89 431.53 473.59 419.64 472.35 408.01 475.91 396.59 485.14 385.35 499.83 371.34 503.78 357.64 509.35 344.25 514.04 331.16 515.59 318.35 512.35 305.8 503.61 293.48 489.69 281.36 471.9 282.83 456.5 285.04 441.1 287.86 425.71 291.12 410.31 294.62 394.91 298.14 379.52 301.47 364.12 304.39 348.72 319.22 349.21 333.97 346.24 348.61 339.04 363.09 327.67 377.39 312.93 391.46 296.25 405.27 279.38 418.8 264.07 418.8 264.07 418.8 264.07" stroke-dasharray="45 80" transform="rotate(266.4, 400, 400)" opacity="0.75"></path><path d="M418.99 272.49Q431.6 274.36 443.94 279.42 455.98 288.07 467.73 300.14 479.17 314.88 490.29 331.08 501.11 347.27 511.63 361.93 506.99 376.44 501.85 390.94 496.48 405.45 491.16 419.95 486.18 434.46 481.8 448.97 478.25 463.47 475.72 477.98 463.23 476.22 451.06 472.17 439.2 467.6 427.63 464.41 416.34 464.32 405.28 468.56 394.44 477.67 383.79 491.41 371.06 494.87 358.61 499.87 346.43 504.42 334.5 506.66 322.8 505.13 311.31 499.03 300.02 488.27 288.88 473.57 290.46 459.15 292.68 444.73 295.42 430.32 298.53 415.9 301.85 401.48 305.21 387.06 308.42 372.64 311.31 358.22 325.16 357.18 338.96 352.69 352.68 344.43 366.29 332.67 379.76 318.27 393.05 302.49 406.14 286.76 418.99 272.49 418.99 272.49 418.99 272.49" stroke-dasharray="78 31" transform="rotate(273.6, 400, 400)" opacity="0.77"></path><path d="M418.81 280.91Q430.16 282.46 441.27 286.72 452.13 294.08 462.73 304.49 473.07 317.45 483.16 332.13 492.99 347.39 502.58 362.03 498.22 375.33 493.48 388.62 488.59 401.92 483.75 415.21 479.21 428.51 475.14 441.8 471.75 455.1 469.19 468.39 457.48 465.47 446.05 461.39 434.88 457.61 423.97 455.59 413.3 456.55 402.86 461.33 392.61 470.23 382.55 482.99 371.08 486 359.84 490.43 348.82 494.73 338.02 497.42 327.4 497.27 316.95 493.43 306.66 485.62 296.49 474.09 298.15 460.69 300.35 447.29 302.99 433.89 305.94 420.49 309.07 407.09 312.25 393.69 315.32 380.29 318.15 366.88 331 364.22 343.83 358.35 356.61 349.25 369.3 337.36 381.9 323.48 394.36 308.68 406.67 294.12 418.81 280.91 418.81 280.91 418.81 280.91" stroke-dasharray="24 36" transform="rotate(280.8, 400, 400)" opacity="0.79"></path><path d="M418.24 289.33Q428.38 290.58 438.31 294.12 448.03 300.27 457.55 309.07 466.85 320.24 475.94 333.2 484.83 347.16 493.52 361.19 489.46 373.27 485.13 385.35 480.71 397.44 476.35 409.52 472.22 421.6 468.49 433.69 458.57 450.12 441.2 450.82 430.77 448.03 420.55 447.16 410.55 449.04 400.74 454.21 391.12 462.8 381.66 474.57 371.4 477.16 361.34 481.02 351.45 485 341.73 487.93 332.16 488.8 322.72 486.85 313.4 481.65 304.19 473.19 305.9 460.84 308.06 448.5 310.57 436.15 313.35 423.81 316.28 411.46 319.26 399.12 322.17 386.77 324.9 374.43 336.75 370.2 348.58 363.18 360.38 353.54 372.14 341.77 383.82 328.58 395.41 314.84 412.56 295.4 418.24 289.33" stroke-dasharray="72 5" transform="rotate(288, 400, 400)" opacity="0.81"></path><path d="M417.3 297.75Q426.28 298.74 435.09 301.61 443.73 306.64 452.2 313.92 460.5 323.31 468.64 334.44 476.61 346.8 484.44 359.72 480.71 370.6 476.8 381.48 472.84 392.36 468.94 403.24 465.23 414.12 461.83 425 452.59 439.7 436.49 440.63 426.84 438.93 417.36 439.15 408.06 441.8 398.93 447.2 389.96 455.39 381.14 466.15 372.05 468.35 363.11 471.67 354.31 475.25 345.64 478.23 328.67 478.08 311.97 470.66 313.71 459.41 315.79 448.16 318.17 436.9 320.75 425.65 323.48 414.4 326.25 403.14 328.98 391.89 331.58 380.63 342.4 375.05 353.21 367.19 364.02 357.32 374.79 345.91 385.53 333.56 396.2 320.96 412.05 303.28 417.3 297.75" stroke-dasharray="79 18" transform="rotate(295.2, 400, 400)" opacity="0.83"></path><path d="M416.02 306.17Q431.57 310.07 446.71 319.08 454.06 326.75 461.28 336.02 468.37 346.57 475.36 357.98 471.98 367.67 468.49 377.37 464.98 387.06 461.53 396.76 458.23 406.45 455.17 416.15 446.67 429.36 431.93 430.98 423.09 430.39 414.39 431.56 405.84 434.81 397.43 440.3 389.15 448 381 457.73 365.22 462.54 349.75 468.38 328.13 463.17 323.56 446.15 325.78 436.02 328.16 425.89 330.66 415.76 333.21 405.62 335.74 395.49 338.18 385.36 347.95 378.76 357.73 370.42 367.52 360.64 377.29 349.83 387.03 338.47 396.75 327.07 411.22 311.16 416.02 306.17" stroke-dasharray="67 62" transform="rotate(302.4, 400, 400)" opacity="0.85"></path><path d="M414.42 314.59Q427.96 316.87 441.11 324.56 453.87 338.06 466.28 356.34 460.21 373.4 454.12 390.47 448.5 407.54 443.81 424.61 427.49 422.02 411.63 424.42 396.22 433.49 381.24 449.31 367.5 453.12 354.06 458.45 340.85 461.86 327.83 460.48 331.35 442.5 335.57 424.52 340.15 406.54 344.71 388.57 362.15 372.93 379.63 353.56 397.07 333.15 414.42 314.59 414.42 314.59 414.42 314.59" stroke-dasharray="32 59" transform="rotate(309.6, 400, 400)" opacity="0.87"></path><path d="M412.52 323.01Q424.11 324.65 435.41 330.4 446.43 340.72 457.22 355.18 451.95 369.98 446.71 384.79 441.83 399.59 437.61 414.39 423.16 413.85 409.05 417.71 395.29 426.78 381.86 440.89 370.11 443.94 358.56 448.46 343.17 444.73 342.98 421.63 347.06 405.97 351.16 390.31 366.47 374.81 381.83 357.14 397.19 339.22 412.52 323.01 412.52 323.01 412.52 323.01" stroke-dasharray="17 32" transform="rotate(316.8, 400, 400)" opacity="0.89"></path><path d="M410.37 331.42Q420.1 332.53 429.64 336.61 438.99 344.07 448.18 354.85 443.71 367.44 439.3 380.04 435.15 392.63 431.45 405.23 418.93 406.57 406.66 411.45 394.63 420.16 382.84 432.47 372.99 434.84 363.25 438.5 350.33 436.39 350.39 417.39 353.95 404.05 357.55 390.71 370.7 376.17 383.91 360.61 397.14 345.29 410.37 331.42 410.37 331.42 410.37 331.42" stroke-dasharray="9 76" transform="rotate(324, 400, 400)" opacity="0.91"></path><path d="M408.02 339.84Q423.76 344.37 439.17 355.66 435.5 366.1 431.89 376.54 428.47 386.97 425.32 397.41 414.79 400.21 404.42 405.6 394.21 413.62 384.17 424.05 361.54 425.92 357.8 412.08 360.81 401.05 363.88 390.02 374.85 377.16 385.88 364.02 402.47 345.6 408.02 339.84" stroke-dasharray="19 20" transform="rotate(331.2, 400, 400)" opacity="0.92"></path><path d="M405.5 348.26Q417.97 350.19 430.2 357.84 424.48 374.49 419.22 391.13 402.32 400.17 385.82 415.63 369.19 412.43 370.16 388.52 387.76 367.43 405.5 348.26 405.5 348.26 405.5 348.26" stroke-dasharray="76 10" transform="rotate(338.4, 400, 400)" opacity="0.94"></path><path d="M402.87 356.68Q414.6 365.8 413.13 386.5 400.34 395.12 387.75 407.21 375.5 404.4 376.39 386.57 389.57 370.88 402.87 356.68 402.87 356.68 402.87 356.68" stroke-dasharray="73 59" transform="rotate(345.59999999999997, 400, 400)" opacity="0.96"></path><path d="M400.18 365.1Q407.99 370.25 407.04 383.52 394.32 374.69 400.18 365.1" stroke-dasharray="5 62" transform="rotate(352.8, 400, 400)" opacity="0.98"></path></g></svg>