<svg id="sw-js-blob-svg" viewBox="0 0 100 100" xmlns="http://www.w3.org/2000/svg" version="1.1">
                    <defs> 
                        <linearGradient id="sw-gradient" x1="0" x2="1" y1="1" y2="0">
                            <stop id="stop1" stop-color="rgba(0, 129.749, 255, 1)" offset="0%"></stop>
                            <stop id="stop2" stop-color="rgba(0, 0, 0, 1)" offset="100%"></stop>
                        </linearGradient>
                    </defs>
                <path fill="url(#sw-gradient)" d="M21.4,-25.5C27.4,-20.4,31.9,-13.4,32.8,-6.1C33.8,1.2,31.1,8.8,27.6,16.7C24,24.7,19.5,32.8,12.6,35.9C5.8,38.9,-3.4,36.8,-11.7,33.3C-20,29.8,-27.4,25,-31.4,18.1C-35.3,11.3,-35.7,2.5,-33.6,-5.2C-31.4,-12.9,-26.5,-19.4,-20.5,-24.5C-14.5,-29.7,-7.2,-33.5,0.2,-33.7C7.6,-33.9,15.3,-30.6,21.4,-25.5Z" width="100%" height="100%" transform="translate(50 50)" stroke-width="0" style="transition: all 0.3s ease 0s;"></path>
              </svg>